<?xml version="1.0" encoding="utf-8"?>
<!-- Generator: Adobe Illustrator 25.4.1, SVG Export Plug-In . SVG Version: 6.00 Build 0)  -->
<svg version="1.1" id="On_Black" xmlns="http://www.w3.org/2000/svg" xmlns:xlink="http://www.w3.org/1999/xlink" x="0px" y="0px"
	 viewBox="0 0 864 864" style="enable-background:new 0 0 864 864;" xml:space="preserve">
<style type="text/css">
	.st0{fill:#61B222;}
	.st1{fill:#2868AD;}
	.st2{fill:#FFFFFF;}
</style>
<g>
	<g>
		<path class="st0" d="M155.25,638.06v34.09h-29.5V565.6h72.17c33.65,0,44.11,14.75,44.11,35.38v1.58
			c0,20.19-10.74,35.52-44.11,35.52H155.25z M155.25,614.29h40.53c10.74,0,15.61-4.58,15.61-12.17v-0.57
			c0-7.45-4.87-12.17-15.61-12.17h-40.53V614.29z"/>
		<path class="st0" d="M335.54,652.39h-57.57l-8.59,19.76h-29.64L287,565.6h39.52l49.41,106.55h-31.65L335.54,652.39z
			 M306.33,587.08l-18.76,43.4h38.09L306.33,587.08z"/>
		<path class="st0" d="M405.14,589.94H363.9V565.6h111.84v24.35H434.5v82.21h-29.36V589.94z"/>
		<path class="st0" d="M548.21,673.73c-48.69,0-61.58-31.22-61.58-52.99v-4.3c0-22.2,12.89-52.42,61.58-52.42h6.59
			c44.68,0,59.57,21.91,59.57,42.11v0.29h-30.36c-0.43-3.01-4.3-18.05-32.51-18.05c-26.06,0-34.23,14.61-34.23,28.93v2
			c0,13.18,8.31,29.93,34.37,29.93c28.35,0,31.93-15.47,32.36-18.76h30.36v0.43c0,19.48-14.32,42.82-59.57,42.82H548.21z"/>
		<path class="st0" d="M636.43,565.6h29.5v39.53h59.43V565.6h29.5v106.55h-29.5v-42.82h-59.43v42.82h-29.5V565.6z"/>
		<path class="st1" d="M197.93,692.44h24.93l21.57,45.87l22.2-45.87h23.39v67.71h-18.29v-44.32l-20.57,44.32h-14.65l-20.57-44.32
			v44.32h-18.02V692.44z"/>
		<path class="st1" d="M357.63,735.4l-33.58-42.95h23.21l20.29,26.85l20.29-26.85h20.93l-32.4,43.04v24.66h-18.75V735.4z"/>
		<path class="st1" d="M513.69,738.49v21.66h-18.75v-67.71h45.87c21.39,0,28.03,9.37,28.03,22.48v1c0,12.83-6.83,22.57-28.03,22.57
			H513.69z M513.69,723.38h25.75c6.83,0,9.92-2.91,9.92-7.74v-0.36c0-4.73-3.09-7.74-9.92-7.74h-25.75V723.38z"/>
		<path class="st1" d="M643.91,761.15c-30.94,0-39.13-19.84-39.13-33.67v-2.73c0-14.11,8.19-33.31,39.13-33.31h4.19
			c28.39,0,37.86,13.92,37.86,26.76v0.18h-19.29c-0.27-1.91-2.73-11.47-20.66-11.47c-16.56,0-21.75,9.28-21.75,18.38v1.27
			c0,8.37,5.28,19.02,21.84,19.02c18.02,0,20.29-9.83,20.57-11.92h19.29v0.27c0,12.38-9.1,27.21-37.86,27.21H643.91z"/>
	</g>
</g>
<g>
	<g>
		<g>
			<g>
				<path class="st1" d="M357.06,414.44c-1.98-2.45-4.48-5.96-7.44-10.86c-6.2-9.71-11.86-20.35-16.57-32.02
					c-4.23-10.49-8.08-21.25-11.57-31.93c-10.08-28.63-21.6-67.25-34.11-119.41c-3.28-13.67-6.18-27.1-7.49-33.24
					c-29.43,35.98-47.11,81.93-47.11,131.93c0,22.11,3.47,43.42,9.87,63.44L360.8,419.4C359.54,417.78,358.29,416.13,357.06,414.44z
					"/>
			</g>
			<g>
				<path class="st1" d="M567.12,323.52c-4.09,15.1-8.94,30.72-14.68,45.78c-14.58,38.27-40.03,66.14-62.82,84.9
					c-11.67,9.92-24.64,19.76-39.34,31.52c-8.08,7.3-26.47,24.25-42.6,39.15c11.01,1.8,22.29,2.75,33.8,2.75
					c61.1,0,116.14-26.39,154.35-68.37C586.32,414.07,570.17,337.45,567.12,323.52z"/>
			</g>
			<g>
				<path class="st1" d="M571.05,308.25l31.94,142.69c29.48-36,47.2-81.99,47.2-132.04c0-22.02-3.44-43.25-9.79-63.19L584.5,238.2
					C582.72,250.88,578.53,277.57,571.05,308.25z"/>
			</g>
			<g>
				<path class="st1" d="M486.3,115.06l-67.22,61.83l0.68,0.21l28.83-11.18l124.79,59.27L636.65,245
					C611.92,179.89,555.49,130.26,486.3,115.06z"/>
			</g>
			<g>
				<path class="st1" d="M299.15,231.75l92.99-42.14l83.35-76.63c-11.07-1.82-22.43-2.78-34-2.78
					c-61.05,0-116.05,26.35-154.25,68.27L299.15,231.75z"/>
			</g>
			<g>
				<path class="st1" d="M397.34,522.9l42.59-39.16c-8.3-3.93-39.75-20.15-68.54-51.78l-125.08-39.11
					C271.14,458.16,327.85,507.88,397.34,522.9z"/>
			</g>
		</g>
		<path class="st0" d="M448.47,313.79c0,0-28.38-29.47-30.37-32.42c-3.52,4.85-15.41,18.93-20.35,24.37
			c12.27,8.63,49.28,43.86,59.54,53.65c26.9-62.68,51.75-97.12,85.38-120.21l-22.46-25.39
			C484.08,239.18,462.03,284.69,448.47,313.79z"/>
	</g>
	<path class="st2" d="M520.61,372.39c0-0.01,0-0.02,0-0.03v-95.26c0-1.77-1.15-3.4-2.59-3.64l-6.73-1.16
		c-2.03,2.39-4.03,4.85-6.01,7.42l7.04,1.06v80.78l-128.34,7.1v-107.2l80.95,12.18c1.6-2.79,3.27-5.61,5.02-8.44l-96.25-16.52
		l-0.09-0.04c-4.68-0.77-8.36,3.39-8.36,6.74v132.95c0,2.47,2.23,4.26,4.96,4c0,0,31.41-2.83,66.96-6.03l-0.98,10.91
		c-10.77,2-18.5,4.74-18.56,7.3c-0.09,4.12,19.61,5.06,40.08,2.58c17.13-2.07,29.14-5.93,29.2-8.91c0.05-2.45-8-4.01-20.38-3.9
		l0.38-10.67c25.24-2.28,48.74-4.41,49.28-4.48C520.88,378.52,520.62,372.59,520.61,372.39z"/>
</g>
</svg>
