<?xml version="1.0" encoding="utf-8"?>
<!-- Generator: Adobe Illustrator 25.4.1, SVG Export Plug-In . SVG Version: 6.00 Build 0)  -->
<svg version="1.1" id="Black" xmlns="http://www.w3.org/2000/svg" xmlns:xlink="http://www.w3.org/1999/xlink" x="0px" y="0px"
	 viewBox="0 0 864 627.57" style="enable-background:new 0 0 864 627.57;" xml:space="preserve">
<g>
	<g>
		<path d="M79.95,547.58v18.66H63.8v-58.33h39.51c18.42,0,24.15,8.08,24.15,19.36v0.86c0,11.05-5.88,19.44-24.15,19.44H79.95z
			 M79.95,534.56h22.19c5.88,0,8.55-2.51,8.55-6.66v-0.31c0-4.08-2.67-6.66-8.55-6.66H79.95V534.56z"/>
		<path d="M178.65,555.42h-31.52l-4.7,10.82H126.2l25.87-58.33h21.64l27.05,58.33h-17.33L178.65,555.42z M162.66,519.67
			l-10.27,23.75h20.85L162.66,519.67z"/>
		<path d="M216.75,521.23h-22.58v-13.33h61.23v13.33h-22.58v45h-16.07V521.23z"/>
		<path d="M295.06,567.1c-26.66,0-33.71-17.09-33.71-29.01v-2.35c0-12.15,7.06-28.69,33.71-28.69h3.61c24.46,0,32.61,12,32.61,23.05
			v0.16h-16.62c-0.24-1.65-2.35-9.88-17.8-9.88c-14.27,0-18.74,8-18.74,15.84v1.1c0,7.21,4.55,16.39,18.82,16.39
			c15.52,0,17.48-8.47,17.72-10.27h16.62v0.24c0,10.66-7.84,23.44-32.61,23.44H295.06z"/>
		<path d="M343.35,507.91h16.15v21.64h32.54v-21.64h16.15v58.33h-16.15v-23.44H359.5v23.44h-16.15V507.91z"/>
		<path d="M449.18,507.91h21.48l18.58,39.51l19.13-39.51h20.15v58.33h-15.76v-38.18l-17.72,38.18h-12.62l-17.72-38.18v38.18h-15.52
			V507.91z"/>
		<path d="M569.21,544.91l-28.93-37h19.99l17.48,23.13l17.48-23.13h18.03l-27.91,37.08v21.25h-16.15V544.91z"/>
		<path d="M668.53,547.58v18.66h-16.15v-58.33h39.51c18.42,0,24.15,8.08,24.15,19.36v0.86c0,11.05-5.88,19.44-24.15,19.44H668.53z
			 M668.53,534.56h22.19c5.88,0,8.55-2.51,8.55-6.66v-0.31c0-4.08-2.67-6.66-8.55-6.66h-22.19V534.56z"/>
		<path d="M763.15,567.1c-26.66,0-33.71-17.09-33.71-29.01v-2.35c0-12.15,7.06-28.69,33.71-28.69h3.61c24.46,0,32.61,12,32.61,23.05
			v0.16h-16.62c-0.24-1.65-2.35-9.88-17.8-9.88c-14.27,0-18.74,8-18.74,15.84v1.1c0,7.21,4.55,16.39,18.82,16.39
			c15.52,0,17.48-8.47,17.72-10.27h16.62v0.24c0,10.66-7.84,23.44-32.61,23.44H763.15z"/>
	</g>
</g>
<g>
	<g>
		<g>
			<g>
				<path d="M350.6,353.51c-1.92-2.38-4.35-5.79-7.22-10.54c-6.02-9.42-11.51-19.75-16.08-31.08c-4.1-10.18-7.84-20.63-11.23-30.98
					c-9.78-27.79-20.96-65.27-33.11-115.88c-3.18-13.27-6-26.3-7.27-32.26c-28.56,34.92-45.72,79.51-45.72,128.03
					c0,21.46,3.37,42.14,9.58,61.56l114.67,35.96C353.01,356.75,351.8,355.14,350.6,353.51z"/>
			</g>
			<g>
				<path d="M554.45,265.27c-3.97,14.65-8.68,29.81-14.24,44.43c-14.15,37.14-38.85,64.18-60.97,82.39
					c-11.32,9.63-23.91,19.18-38.18,30.59c-7.84,7.09-25.69,23.54-41.34,37.99c10.68,1.75,21.64,2.67,32.8,2.67
					c59.29,0,112.71-25.61,149.79-66.35C573.09,353.14,557.42,278.79,554.45,265.27z"/>
			</g>
			<g>
				<path d="M558.27,250.45l30.99,138.48c28.61-34.93,45.81-79.56,45.81-128.14c0-21.37-3.34-41.97-9.5-61.32l-54.24-17
					C569.6,194.78,565.53,220.68,558.27,250.45z"/>
			</g>
			<g>
				<path d="M476.03,62.97l-65.23,60l0.66,0.21l27.98-10.85l121.1,57.52l61.41,19.23C597.93,125.88,543.17,77.72,476.03,62.97z"/>
			</g>
			<g>
				<path d="M294.4,176.21l90.24-40.89l80.88-74.37c-10.74-1.77-21.76-2.7-33-2.7c-59.24,0-112.62,25.57-149.7,66.25L294.4,176.21z"
					/>
			</g>
			<g>
				<path d="M389.69,458.76l41.33-38c-8.05-3.82-38.58-19.55-66.51-50.25l-121.38-37.96C267.22,395.94,322.26,444.18,389.69,458.76z
					"/>
			</g>
		</g>
		<path d="M439.31,255.82c0,0-27.54-28.6-29.47-31.46c-3.42,4.71-14.96,18.37-19.75,23.65c11.9,8.38,47.83,42.57,57.79,52.07
			c26.1-60.83,50.22-94.25,82.86-116.66l-21.79-24.64C473.87,183.42,452.47,227.58,439.31,255.82z"/>
	</g>
	<path d="M509.32,312.7c0-0.01,0-0.02,0-0.03v-92.44c0-1.71-1.12-3.3-2.51-3.54l-6.53-1.12c-1.97,2.32-3.91,4.71-5.84,7.2l6.83,1.03
		v78.4l-124.55,6.89V205.05l78.55,11.82c1.56-2.71,3.18-5.45,4.88-8.19l-93.4-16.04l-0.08-0.04c-4.55-0.75-8.12,3.29-8.12,6.55
		v129.02c0,2.39,2.17,4.13,4.82,3.89c0,0,30.48-2.74,64.99-5.86l-0.96,10.59c-10.45,1.94-17.95,4.6-18.01,7.09
		c-0.09,3.99,19.03,4.91,38.9,2.5c16.62-2.01,28.28-5.76,28.34-8.64c0.05-2.38-7.76-3.89-19.78-3.79l0.37-10.35
		c24.49-2.21,47.3-4.28,47.82-4.35C509.58,318.65,509.33,312.89,509.32,312.7z"/>
</g>
</svg>
