<?xml version="1.0" encoding="utf-8"?>
<!-- Generator: Adobe Illustrator 25.4.1, SVG Export Plug-In . SVG Version: 6.00 Build 0)  -->
<svg version="1.1" id="Color-WhiteBorder" xmlns="http://www.w3.org/2000/svg" xmlns:xlink="http://www.w3.org/1999/xlink" x="0px"
	 y="0px" viewBox="0 0 1584 361.88" style="enable-background:new 0 0 1584 361.88;" xml:space="preserve">
<style type="text/css">
	.st0{fill:#FFFFFF;}
	.st1{fill:#61B222;}
	.st2{fill:#2868AD;}
	.st3{fill:#142D41;}
</style>
<g>
	<polygon class="st0" points="453.24,193.6 485.78,193.6 469.27,156.54 	"/>
	<path class="st0" d="M1293.29,158.49h-34.62v21.29h34.62c9.17,0,13.33-3.92,13.33-10.4v-0.49
		C1306.63,162.53,1302.47,158.49,1293.29,158.49z"/>
	<path class="st0" d="M374.82,158.49h-34.62v21.29h34.62c9.17,0,13.33-3.92,13.33-10.4v-0.49
		C388.16,162.53,384,158.49,374.82,158.49z"/>
	<path class="st0" d="M1507.84,172.81c0-22.92-9.52-43.72-26.8-58.58c-17.28-14.86-40.53-22.39-69.09-22.39h-5.63
		c-24.17,0-43.6,6.05-58.56,15.81c-13.83-9.59-31.48-14.46-52.64-14.46h-61.65c-11.78,0-22.51,4.54-30.53,11.95
		c-8.17-7.54-19.01-11.95-30.52-11.95h-28.14c-9.97,0-19.53,3.3-27.28,9.21c-7.75-5.91-17.31-9.21-27.28-9.21h-31.19
		c-3.11,0-6.18,0.33-9.16,0.94c-2.97-0.62-6.05-0.94-9.2-0.94h-31.44c-11,0-21.39,4.01-29.42,10.95
		c-8.03-6.93-18.41-10.95-29.42-10.95h-33.52c-12.52,0-23.83,5.11-31.99,13.36c-8.16-8.25-19.48-13.36-31.99-13.36h-25.2
		c-9.42,0-18.16,2.89-25.38,7.84c-7.23-4.94-15.97-7.84-25.38-7.84h-25.2c-8.79,0-16.98,2.53-23.91,6.89
		c-13.24-5.46-28.55-8.23-45.82-8.23h-5.63c-15.4,0-28.86,2.46-40.48,6.76c-6.37-3.45-13.67-5.42-21.42-5.42h-95.54
		c-5.63,0-11.01,1.04-15.97,2.93c-5.01-1.9-10.4-2.93-15.96-2.93h-33.76c-10.95,0-21.27,3.98-29.27,10.83
		c-12.85-7.18-28.52-10.83-46.82-10.83h-61.65c-12.34,0-23.52,4.97-31.65,13.02c-17.96-24.63-44.39-42.19-74.98-48.91
		c-1.07-0.24-2.15-0.42-3.22-0.57c-1.1-0.27-2.22-0.5-3.35-0.69c-6.79-1.12-13.72-1.69-20.59-1.69c-35.47,0-69.55,15.07-93.5,41.35
		c-0.77,0.85-1.49,1.73-2.19,2.62c-0.77,0.81-1.53,1.65-2.25,2.52c-18.42,22.52-28.56,50.94-28.56,80.01
		c0,13.1,2.02,26.05,5.99,38.48c0.34,1.05,0.72,2.08,1.13,3.09c0.33,1.11,0.69,2.21,1.11,3.3c15.3,40.25,49.52,69.7,91.53,78.78
		c1.01,0.22,2.03,0.39,3.04,0.54c1.07,0.26,2.15,0.48,3.24,0.66c6.75,1.1,13.64,1.66,20.46,1.66c35.51,0,69.61-15.09,93.56-41.41
		c0.75-0.83,1.46-1.69,2.15-2.56c0.75-0.79,1.49-1.6,2.18-2.45c0.63-0.77,1.25-1.55,1.86-2.33c8.25,9.55,20.44,15.6,34.05,15.6h25.2
		c14.77,0,27.88-7.13,36.09-18.12c8.46,11.36,21.82,18.12,36.09,18.12h25.32c12.24,0,23.69-4.96,31.99-13.35
		c8.3,8.39,19.75,13.35,31.99,13.35h27.03c4.27,0,8.45-0.63,12.44-1.78c3.97,1.15,8.17,1.78,12.51,1.78h25.08
		c14.28,0,27-6.66,35.24-17.04c13.63,9.93,33.54,18.38,61.89,18.38h5.63c17.78,0,32.95-3.09,45.62-8.36
		c6.97,4.43,15.24,7.01,24.11,7.01h25.2c9.42,0,18.16-2.89,25.38-7.84c7.23,4.94,15.97,7.84,25.38,7.84h25.2
		c12.52,0,23.83-5.11,31.99-13.36c8.16,8.25,19.47,13.36,31.99,13.36h24.22c4.83,0,9.48-0.76,13.84-2.17
		c4.39,1.42,9.04,2.17,13.81,2.17h19.7c4.77,0,9.42-0.75,13.81-2.17c4.36,1.41,9.01,2.17,13.84,2.17h24.59
		c12.39,0,23.61-5.01,31.75-13.11c8.14,8.1,19.36,13.11,31.75,13.11h25.2c24.85,0,45-20.15,45-45v-18.11l14.59-19.39v37.5
		c0,24.85,20.15,45,45,45h25.2c19.31,0,35.77-12.16,42.16-29.24c9.57-0.42,18.38-1.93,26.41-4.49c1.12,1.44,2.26,2.86,3.48,4.23
		c12.45,14.07,35.66,30.85,75.61,30.85h5.63c65.88,0,95.89-42.29,95.89-81.58v-0.37c0-3.54-0.41-6.97-1.18-10.28
		c0.77-3.3,1.18-6.74,1.18-10.28V172.81z M257.43,151.99l-24.71-7.74l-48.73-23.15l-11.26,4.37l-0.26-0.08l26.25-24.14
		C225.73,107.18,247.77,126.56,257.43,151.99z M200.23,211.7c-0.03,1.16-4.72,2.67-11.4,3.48c-7.99,0.97-15.69,0.6-15.65-1.01
		c0.02-1,3.04-2.07,7.25-2.85l0.38-4.26c-13.88,1.25-27.42,2.47-27.42,2.47c-1.07,0.1-1.94-0.6-1.94-1.56v-51.92
		c0-1.31,1.44-2.94,3.27-2.63l0.03,0.02l37.59,6.45c-0.68,1.11-1.33,2.21-1.96,3.3l-31.61-4.76v41.86l50.12-2.77v-31.55l-2.75-0.41
		c0.77-1,1.56-1.97,2.35-2.9l2.63,0.45c0.56,0.1,1.01,0.73,1.01,1.42v37.2c0,0,0,0.01,0,0.01c0,0.08,0.1,2.39-1.72,2.63
		c-0.21,0.03-8.11,0.74-17.97,1.64l-0.15,4.17C197.11,210.13,200.25,210.74,200.23,211.7z M187.39,196.66
		c-4.01-3.82-18.46-17.58-23.25-20.95c1.93-2.12,6.57-7.62,7.95-9.52c0.78,1.15,11.86,12.66,11.86,12.66
		c5.3-11.36,13.91-29.14,28.02-39.05l8.77,9.91C207.59,158.73,197.89,172.18,187.39,196.66z M181.21,99.35
		c4.52,0,8.96,0.38,13.28,1.09l-32.55,29.93l-36.31,16.45l-4.66-20.81C135.89,109.64,157.37,99.35,181.21,99.35z M99.71,180.85
		c0-19.53,6.91-37.47,18.4-51.52c0.51,2.4,1.64,7.64,2.92,12.98c4.89,20.37,9.39,35.45,13.32,46.63c1.36,4.17,2.87,8.37,4.52,12.47
		c1.84,4.56,4.05,8.71,6.47,12.51c1.15,1.91,2.13,3.28,2.9,4.24c0.48,0.66,0.97,1.3,1.46,1.94l-46.15-14.47
		C101.06,197.81,99.71,189.49,99.71,180.85z M105,209.73L153.84,225c11.24,12.35,23.52,18.68,26.76,20.22l-16.63,15.29
		C136.84,254.65,114.69,235.23,105,209.73z M181.21,262.35c-4.49,0-8.9-0.37-13.2-1.07c6.3-5.82,13.48-12.44,16.64-15.29
		c5.74-4.59,10.8-8.43,15.36-12.31c8.9-7.33,18.84-18.21,24.53-33.15c2.24-5.88,4.14-11.98,5.73-17.88c1.19,5.44,7.5,35.36,11.21,53
		C226.57,252.05,205.07,262.35,181.21,262.35z M244.28,232.41l-12.47-55.72c2.92-11.98,4.56-22.4,5.25-27.36l21.83,6.84
		c2.48,7.79,3.82,16.08,3.82,24.68C262.71,200.4,255.79,218.36,244.28,232.41z M376.66,200.09h-36.45v29.11h-25.2v-91.01h61.65
		c28.75,0,37.68,12.6,37.68,30.22v1.35C414.34,187,405.16,200.09,376.66,200.09z M501.68,229.2l-7.46-16.88h-49.18l-7.34,16.88
		h-25.32l40.37-91.01h33.76l42.2,91.01H501.68z M613.98,158.98h-35.23v70.22h-25.08v-70.22h-35.23v-20.8h95.54V158.98z
		 M732.4,173.05h-25.93c-0.37-2.57-3.67-15.41-27.77-15.41c-22.26,0-29.24,12.48-29.24,24.71v1.71c0,11.25,7.1,25.57,29.36,25.57
		c24.22,0,27.28-13.21,27.65-16.02h25.93v0.37c0,16.64-12.23,36.58-50.89,36.58h-5.63c-41.59,0-52.6-26.67-52.6-45.26v-3.67
		c0-18.96,11.01-44.77,52.6-44.77h5.63c38.17,0,50.89,18.72,50.89,35.97V173.05z M852.41,229.2h-25.2v-36.58h-50.77v36.58h-25.2
		v-91.01h25.2v33.76h50.77v-33.76h25.2V229.2z M1040.19,229.2h-24.59v-59.57l-27.65,59.57h-19.7l-27.65-59.57v59.57h-24.22v-91.01
		h33.52l28.99,61.65l29.85-61.65h31.44V229.2z M1128.88,196.05v33.15h-25.2v-33.27l-45.14-57.74h31.19l27.28,36.09l27.28-36.09
		h28.14L1128.88,196.05z M1332.81,169.75c0,17.25-9.17,30.34-37.68,30.34h-36.45v29.11h-25.2v-91.01h61.65
		c28.75,0,37.68,12.6,37.68,30.22V169.75z M1462.84,173.05h-25.93c-0.37-2.57-3.67-15.41-27.77-15.41
		c-22.26,0-29.24,12.48-29.24,24.71v1.71c0,11.25,7.1,25.57,29.36,25.57c24.22,0,27.28-13.21,27.65-16.02h25.93v0.37
		c0,16.64-12.23,36.58-50.89,36.58h-5.63c-41.59,0-52.6-26.67-52.6-45.26v-3.67c0-18.96,11.01-44.77,52.6-44.77h5.63
		c38.17,0,50.89,18.72,50.89,35.97V173.05z"/>
	<path class="st1" d="M414.34,168.4c0-17.62-8.93-30.22-37.68-30.22h-61.65v91.01h25.2v-29.11h36.45c28.5,0,37.68-13.09,37.68-30.34
		V168.4z M388.16,169.38c0,6.48-4.16,10.4-13.33,10.4h-34.62v-21.29h34.62c9.17,0,13.33,4.04,13.33,10.4V169.38z"/>
	<path class="st1" d="M452.75,138.19l-40.37,91.01h25.32l7.34-16.88h49.18l7.46,16.88h27.03l-42.2-91.01H452.75z M453.24,193.6
		l16.03-37.07l16.51,37.07H453.24z"/>
	<polygon class="st1" points="518.44,158.98 553.68,158.98 553.68,229.2 578.75,229.2 578.75,158.98 613.98,158.98 613.98,138.19 
		518.44,138.19 	"/>
	<path class="st1" d="M681.51,136.84h-5.63c-41.59,0-52.6,25.81-52.6,44.77v3.67c0,18.59,11.01,45.26,52.6,45.26h5.63
		c38.66,0,50.89-19.94,50.89-36.58v-0.37h-25.93c-0.37,2.81-3.43,16.02-27.65,16.02c-22.26,0-29.36-14.31-29.36-25.57v-1.71
		c0-12.23,6.97-24.71,29.24-24.71c24.1,0,27.4,12.84,27.77,15.41h25.93v-0.24C732.4,155.56,719.68,136.84,681.51,136.84z"/>
	<polygon class="st1" points="827.21,171.95 776.44,171.95 776.44,138.19 751.24,138.19 751.24,229.2 776.44,229.2 776.44,192.62 
		827.21,192.62 827.21,229.2 852.41,229.2 852.41,138.19 827.21,138.19 	"/>
	<polygon class="st2" points="978.9,199.84 949.91,138.19 916.39,138.19 916.39,229.2 940.61,229.2 940.61,169.63 968.26,229.2 
		987.95,229.2 1015.6,169.63 1015.6,229.2 1040.19,229.2 1040.19,138.19 1008.75,138.19 	"/>
	<polygon class="st2" points="1117.01,174.27 1089.73,138.19 1058.54,138.19 1103.68,195.93 1103.68,229.2 1128.88,229.2 
		1128.88,196.05 1172.43,138.19 1144.29,138.19 	"/>
	<path class="st2" d="M1295.13,138.19h-61.65v91.01h25.2v-29.11h36.45c28.5,0,37.68-13.09,37.68-30.34v-1.35
		C1332.81,150.79,1323.87,138.19,1295.13,138.19z M1306.63,169.38c0,6.48-4.16,10.4-13.33,10.4h-34.62v-21.29h34.62
		c9.17,0,13.33,4.04,13.33,10.4V169.38z"/>
	<path class="st2" d="M1411.96,136.84h-5.63c-41.59,0-52.6,25.81-52.6,44.77v3.67c0,18.59,11.01,45.26,52.6,45.26h5.63
		c38.66,0,50.89-19.94,50.89-36.58v-0.37h-25.93c-0.37,2.81-3.43,16.02-27.65,16.02c-22.26,0-29.36-14.31-29.36-25.57v-1.71
		c0-12.23,6.97-24.71,29.24-24.71c24.1,0,27.4,12.84,27.77,15.41h25.93v-0.24C1462.84,155.56,1450.12,136.84,1411.96,136.84z"/>
	<g>
		<path class="st2" d="M148.24,218.16c-0.77-0.96-1.75-2.33-2.9-4.24c-2.42-3.79-4.63-7.95-6.47-12.51
			c-1.65-4.1-3.15-8.3-4.52-12.47c-3.94-11.18-8.44-26.26-13.32-46.63c-1.28-5.34-2.42-10.58-2.92-12.98
			c-11.49,14.05-18.4,31.99-18.4,51.52c0,8.63,1.35,16.96,3.85,24.77l46.15,14.47C149.21,219.46,148.73,218.82,148.24,218.16z"/>
	</g>
	<g>
		<path class="st2" d="M224.54,200.53c-5.69,14.95-15.63,25.83-24.53,33.15c-4.56,3.87-9.62,7.72-15.36,12.31
			c-3.16,2.85-10.34,9.47-16.64,15.29c4.3,0.7,8.71,1.07,13.2,1.07c23.86,0,45.36-10.31,60.27-26.7
			c-3.71-17.64-10.02-47.56-11.21-53C228.68,188.55,226.78,194.65,224.54,200.53z"/>
	</g>
	<g>
		<path class="st2" d="M237.06,149.33c-0.69,4.95-2.33,15.38-5.25,27.36l12.47,55.72c11.51-14.06,18.43-32.02,18.43-51.56
			c0-8.6-1.34-16.89-3.82-24.68L237.06,149.33z"/>
	</g>
	<g>
		<path class="st2" d="M172.73,125.47l11.26-4.37l48.73,23.15l24.71,7.74c-9.66-25.43-31.7-44.81-58.72-50.74l-26.25,24.14
			L172.73,125.47z"/>
	</g>
	<g>
		<path class="st2" d="M161.94,130.36l32.55-29.93c-4.32-0.71-8.76-1.09-13.28-1.09c-23.84,0-45.32,10.29-60.24,26.66l4.66,20.81
			L161.94,130.36z"/>
	</g>
	<g>
		<path class="st2" d="M153.84,225L105,209.73c9.7,25.5,31.84,44.92,58.98,50.78l16.63-15.29
			C177.37,243.69,165.08,237.36,153.84,225z"/>
	</g>
	<path class="st1" d="M211.96,139.8c-14.11,9.91-22.72,27.69-28.02,39.05c0,0-11.08-11.51-11.86-12.66
		c-1.38,1.89-6.02,7.39-7.95,9.52c4.79,3.37,19.25,17.13,23.25,20.95c10.5-24.48,20.21-37.93,33.34-46.94L211.96,139.8z"/>
	<path class="st3" d="M210.39,204.37c1.83-0.24,1.73-2.56,1.72-2.63c0,0,0-0.01,0-0.01v-37.2c0-0.69-0.45-1.33-1.01-1.42l-2.63-0.45
		c-0.79,0.93-1.58,1.9-2.35,2.9l2.75,0.41v31.55l-50.12,2.77v-41.86l31.61,4.76c0.63-1.09,1.28-2.19,1.96-3.3l-37.59-6.45
		l-0.03-0.02c-1.83-0.3-3.27,1.32-3.27,2.63v51.92c0,0.96,0.87,1.66,1.94,1.56c0,0,13.54-1.22,27.42-2.47l-0.38,4.26
		c-4.21,0.78-7.22,1.85-7.25,2.85c-0.04,1.61,7.66,1.98,15.65,1.01c6.69-0.81,11.38-2.32,11.4-3.48c0.02-0.96-3.12-1.57-7.96-1.52
		l0.15-4.17C202.28,205.12,210.18,204.4,210.39,204.37z"/>
</g>
</svg>
