<?xml version="1.0" encoding="utf-8"?>
<!-- Generator: Adobe Illustrator 25.4.1, SVG Export Plug-In . SVG Version: 6.00 Build 0)  -->
<svg version="1.1" id="Color-WhiteBorder" xmlns="http://www.w3.org/2000/svg" xmlns:xlink="http://www.w3.org/1999/xlink" x="0px"
	 y="0px" viewBox="0 0 864 864" style="enable-background:new 0 0 864 864;" xml:space="preserve">
<style type="text/css">
	.st0{fill:#FFFFFF;}
	.st1{fill:#61B222;}
	.st2{fill:#2868AD;}
	.st3{fill:#142D41;}
</style>
<g>
	<path class="st0" d="M539.45,707.55h-25.75v15.83h25.75c6.83,0,9.92-2.91,9.92-7.74v-0.36
		C549.37,710.55,546.27,707.55,539.45,707.55z"/>
	<path class="st0" d="M195.77,589.37h-40.53v24.92h40.53c10.74,0,15.61-4.58,15.61-12.17v-0.57
		C211.38,594.1,206.51,589.37,195.77,589.37z"/>
	<polygon class="st0" points="287.57,630.47 325.66,630.47 306.33,587.08 	"/>
	<path class="st0" d="M754.86,520.6h-29.5c-11.39,0-21.79,4.23-29.71,11.21c-7.93-6.98-18.33-11.21-29.71-11.21h-29.5
		c-10.21,0-19.62,3.4-27.17,9.13c-5.55-2.56-11.46-4.67-17.74-6.31c13.53-9.95,26.09-21.26,37.58-33.88
		c1.51-1.66,2.87-3.43,4.1-5.27c1.63-1.48,3.17-3.07,4.6-4.81c37.01-45.18,57.39-102.2,57.39-160.55c0-26.17-4.01-52.02-11.91-76.84
		c-0.7-2.21-1.58-4.32-2.6-6.36c-0.48-2.25-1.12-4.48-1.96-6.68c-14.82-39.02-39.4-74.18-71.07-101.68
		c-31.96-27.75-70.58-47.19-111.69-56.23c-2.21-0.49-4.43-0.79-6.64-0.94c-2.11-0.68-4.29-1.22-6.53-1.59
		c-13.64-2.25-27.54-3.38-41.31-3.38c-36.28,0-71.34,7.54-104.23,22.41c-31.72,14.34-59.74,34.71-83.28,60.55
		c-1.55,1.7-2.94,3.51-4.19,5.4c-1.68,1.51-3.27,3.15-4.73,4.94c-36.94,45.16-57.28,102.13-57.28,160.42
		c0,26.27,4.04,52.23,12.01,77.14c0.69,2.16,1.55,4.24,2.54,6.24c0.47,2.21,1.11,4.41,1.93,6.56
		c14.88,39.14,39.56,74.38,71.38,101.92c3.93,3.4,7.97,6.68,12.1,9.83H287c-12.84,0-24.81,5.46-33.19,14.62
		c-14.7-9.7-33.44-14.62-55.88-14.62h-72.17c-24.85,0-45,20.15-45,45v106.55c0,24.85,20.15,45,45,45h27.18v43
		c0,24.85,20.15,45,45,45h18.02c3.54,0,6.99-0.41,10.3-1.18c3.32,0.78,6.76,1.18,10.26,1.18h14.65c3.5,0,6.94-0.41,10.26-1.18
		c3.31,0.78,6.76,1.18,10.3,1.18h18.29c13.47,0,25.56-5.93,33.8-15.31c8.25,9.38,20.33,15.31,33.8,15.31h18.75
		c24.85,0,45-20.15,45-45v-9.62l23.35-31.03c1.04-1.38,1.97-2.82,2.83-4.28c0.81-0.24,1.6-0.5,2.39-0.79v45.72
		c0,24.85,20.15,45,45,45h18.75c16.58,0,31.06-8.96,38.87-22.31c8.77-1.01,16.76-3.21,23.95-6.54c0.81,1.03,1.65,2.04,2.52,3.02
		c10.83,12.24,30.87,26.84,64.88,26.84h4.19c30.5,0,49.32-11.11,59.73-20.44c14.7-13.16,23.13-32.03,23.13-51.77v-0.27
		c0-2.61-0.22-5.16-0.65-7.64c0.43-2.49,0.65-5.04,0.65-7.64v-0.18c0-0.35-0.02-0.7-0.02-1.05h23.92c24.85,0,45-20.15,45-45V565.6
		C799.86,540.74,779.71,520.6,754.86,520.6z M441.48,527.61c-11.51,0-22.79-0.95-33.8-2.75c16.13-14.9,34.52-31.84,42.6-39.15
		c14.7-11.76,27.67-21.6,39.34-31.52c22.8-18.76,48.25-46.62,62.82-84.9c5.74-15.06,10.59-30.68,14.68-45.78
		c3.06,13.94,19.2,90.55,28.71,135.73C557.62,501.22,502.57,527.61,441.48,527.61z M370.21,392.34c-2.73,0.25-4.96-1.54-4.96-4
		V255.39c0-3.36,3.68-7.52,8.36-6.74l0.09,0.04l96.25,16.52c-1.75,2.83-3.42,5.65-5.02,8.44l-80.95-12.18v107.2l128.34-7.1v-80.78
		l-7.04-1.06c1.98-2.57,3.99-5.03,6.01-7.42l6.73,1.16c1.43,0.25,2.59,1.88,2.59,3.64v95.26c0,0.01,0,0.02,0,0.03
		c0.01,0.2,0.27,6.13-4.41,6.75c-0.54,0.07-24.04,2.2-49.28,4.48l-0.38,10.67c12.38-0.11,20.43,1.46,20.38,3.9
		c-0.07,2.97-12.08,6.83-29.2,8.91c-20.47,2.48-40.17,1.54-40.08-2.58c0.06-2.57,7.79-5.3,18.56-7.3l0.98-10.91
		C401.62,389.51,370.21,392.34,370.21,392.34z M520.21,213.79l22.46,25.39c-33.63,23.09-58.48,57.53-85.38,120.21
		c-10.26-9.79-47.28-45.02-59.54-53.65c4.94-5.44,16.83-19.52,20.35-24.37c1.99,2.95,30.37,32.42,30.37,32.42
		C462.03,284.69,484.08,239.18,520.21,213.79z M650.18,318.91c0,50.05-17.72,96.04-47.2,132.04l-31.94-142.69
		c7.48-30.68,11.68-57.37,13.45-70.05l55.89,17.52C646.75,275.66,650.18,296.89,650.18,318.91z M486.3,115.06
		c69.19,15.2,125.61,64.83,150.35,129.94l-63.28-19.81l-124.79-59.27l-28.83,11.18l-0.68-0.21L486.3,115.06z M441.48,110.2
		c11.58,0,22.93,0.96,34,2.78l-83.35,76.63l-92.99,42.14l-11.92-53.29C325.42,136.55,380.43,110.2,441.48,110.2z M232.77,318.91
		c0-50,17.68-95.95,47.11-131.93c1.3,6.14,4.21,19.57,7.49,33.24c12.51,52.16,24.04,90.78,34.11,119.41
		c3.49,10.67,7.34,21.44,11.57,31.93c4.71,11.67,10.37,22.31,16.57,32.02c2.95,4.89,5.45,8.4,7.44,10.86
		c1.23,1.68,2.48,3.34,3.74,4.96l-118.17-37.06C236.24,362.33,232.77,341.02,232.77,318.91z M246.32,392.85l125.08,39.11
		c28.78,31.63,60.24,47.84,68.54,51.78l-42.59,39.16C327.85,507.88,271.14,458.16,246.32,392.85z M155.25,638.06v34.09h-29.5V565.6
		h72.17c33.65,0,44.11,14.75,44.11,35.38v1.58c0,20.19-10.74,35.52-44.11,35.52H155.25z M290.03,760.15h-18.29v-44.32l-20.57,44.32
		h-14.65l-20.57-44.32v44.32h-18.02v-67.71h24.93l21.57,45.87l22.2-45.87h23.39V760.15z M277.98,652.39l-8.59,19.76h-29.64
		L287,565.6h39.52l49.41,106.55h-31.65l-8.74-19.76H277.98z M376.38,735.49v24.66h-18.75V735.4l-33.58-42.95h23.21l20.29,26.85
		l20.29-26.85h20.93L376.38,735.49z M475.74,589.94H434.5v82.21h-29.36v-82.21H363.9V565.6h111.84V589.94z M568.84,715.92
		c0,12.83-6.83,22.57-28.03,22.57h-27.12v21.66h-18.75v-67.71h45.87c21.39,0,28.03,9.37,28.03,22.48V715.92z M554.8,673.73h-6.59
		c-48.69,0-61.58-31.22-61.58-52.99v-4.3c0-22.2,12.89-52.42,61.58-52.42h6.59c44.68,0,59.57,21.91,59.57,42.11v0.29h-30.36
		c-0.43-3.01-4.3-18.05-32.51-18.05c-26.06,0-34.23,14.61-34.23,28.93v2c0,13.18,8.31,29.93,34.37,29.93
		c28.35,0,31.93-15.47,32.36-18.76h30.36v0.43C614.37,650.38,600.05,673.73,554.8,673.73z M685.96,718.38h-19.29
		c-0.27-1.91-2.73-11.47-20.66-11.47c-16.56,0-21.75,9.28-21.75,18.38v1.27c0,8.37,5.28,19.02,21.84,19.02
		c18.02,0,20.29-9.83,20.57-11.92h19.29v0.27c0,12.38-9.1,27.21-37.86,27.21h-4.19c-30.94,0-39.13-19.84-39.13-33.67v-2.73
		c0-14.11,8.19-33.31,39.13-33.31h4.19c28.39,0,37.86,13.92,37.86,26.76V718.38z M754.86,672.15h-29.5v-42.82h-59.43v42.82h-29.5
		V565.6h29.5v39.53h59.43V565.6h29.5V672.15z"/>
	<path class="st1" d="M242.03,602.55v-1.58c0-20.62-10.45-35.38-44.11-35.38h-72.17v106.55h29.5v-34.09h42.67
		C231.29,638.06,242.03,622.74,242.03,602.55z M211.38,602.12c0,7.59-4.87,12.17-15.61,12.17h-40.53v-24.92h40.53
		c10.74,0,15.61,4.73,15.61,12.17V602.12z"/>
	<path class="st1" d="M344.28,672.15h31.65L326.52,565.6H287l-47.26,106.55h29.64l8.59-19.76h57.57L344.28,672.15z M287.57,630.47
		l18.76-43.4l19.33,43.4H287.57z"/>
	<polygon class="st1" points="363.9,589.94 405.14,589.94 405.14,672.15 434.5,672.15 434.5,589.94 475.74,589.94 475.74,565.6 
		363.9,565.6 	"/>
	<path class="st1" d="M614.37,630.47h-30.36c-0.43,3.29-4.01,18.76-32.36,18.76c-26.06,0-34.37-16.76-34.37-29.93v-2
		c0-14.32,8.16-28.93,34.23-28.93c28.21,0,32.08,15.04,32.51,18.05h30.36v-0.29c0-20.19-14.89-42.11-59.57-42.11h-6.59
		c-48.69,0-61.58,30.22-61.58,52.42v4.3c0,21.77,12.89,52.99,61.58,52.99h6.59c45.25,0,59.57-23.34,59.57-42.82V630.47z"/>
	<polygon class="st1" points="725.36,605.12 665.93,605.12 665.93,565.6 636.43,565.6 636.43,672.15 665.93,672.15 665.93,629.33 
		725.36,629.33 725.36,672.15 754.86,672.15 754.86,565.6 725.36,565.6 	"/>
	<polygon class="st2" points="244.43,738.31 222.86,692.44 197.93,692.44 197.93,760.15 215.95,760.15 215.95,715.83 236.52,760.15 
		251.17,760.15 271.73,715.83 271.73,760.15 290.03,760.15 290.03,692.44 266.64,692.44 	"/>
	<polygon class="st2" points="367.55,719.29 347.26,692.44 324.05,692.44 357.63,735.4 357.63,760.15 376.38,760.15 376.38,735.49 
		408.78,692.44 387.85,692.44 	"/>
	<path class="st2" d="M540.81,692.44h-45.87v67.71h18.75v-21.66h27.12c21.2,0,28.03-9.74,28.03-22.57v-1
		C568.84,701.82,562.2,692.44,540.81,692.44z M549.37,715.65c0,4.82-3.09,7.74-9.92,7.74h-25.75v-15.83h25.75
		c6.83,0,9.92,3,9.92,7.74V715.65z"/>
	<path class="st2" d="M648.1,691.44h-4.19c-30.94,0-39.13,19.2-39.13,33.31v2.73c0,13.83,8.19,33.67,39.13,33.67h4.19
		c28.76,0,37.86-14.83,37.86-27.21v-0.27h-19.29c-0.27,2.09-2.55,11.92-20.57,11.92c-16.56,0-21.84-10.65-21.84-19.02v-1.27
		c0-9.1,5.19-18.38,21.75-18.38c17.93,0,20.38,9.56,20.66,11.47h19.29v-0.18C685.96,705.37,676.49,691.44,648.1,691.44z"/>
	<g>
		<path class="st2" d="M357.06,414.44c-1.98-2.45-4.48-5.96-7.44-10.86c-6.2-9.71-11.86-20.35-16.57-32.02
			c-4.23-10.49-8.08-21.25-11.57-31.93c-10.08-28.63-21.6-67.25-34.11-119.41c-3.28-13.67-6.18-27.1-7.49-33.24
			c-29.43,35.98-47.11,81.93-47.11,131.93c0,22.11,3.47,43.42,9.87,63.44L360.8,419.4C359.54,417.78,358.29,416.13,357.06,414.44z"
			/>
	</g>
	<g>
		<path class="st2" d="M552.44,369.3c-14.58,38.27-40.03,66.14-62.82,84.9c-11.67,9.92-24.64,19.76-39.34,31.52
			c-8.08,7.3-26.47,24.25-42.6,39.15c11.01,1.8,22.29,2.75,33.8,2.75c61.1,0,116.14-26.39,154.35-68.37
			c-9.51-45.18-25.65-121.79-28.71-135.73C563.03,338.61,558.18,354.23,552.44,369.3z"/>
	</g>
	<g>
		<path class="st2" d="M571.05,308.25l31.94,142.69c29.48-36,47.2-81.99,47.2-132.04c0-22.02-3.44-43.25-9.79-63.19L584.5,238.2
			C582.72,250.88,578.53,277.57,571.05,308.25z"/>
	</g>
	<g>
		<path class="st2" d="M419.76,177.1l28.83-11.18l124.79,59.27L636.65,245c-24.74-65.12-81.17-114.74-150.35-129.94l-67.22,61.83
			L419.76,177.1z"/>
	</g>
	<g>
		<path class="st2" d="M392.13,189.62l83.35-76.63c-11.07-1.82-22.43-2.78-34-2.78c-61.05,0-116.05,26.35-154.25,68.27l11.92,53.29
			L392.13,189.62z"/>
	</g>
	<g>
		<path class="st2" d="M397.34,522.9l42.59-39.16c-8.3-3.94-39.75-20.15-68.54-51.78l-125.08-39.11
			C271.14,458.16,327.85,507.88,397.34,522.9z"/>
	</g>
	<path class="st1" d="M418.1,281.37c-3.52,4.85-15.41,18.93-20.35,24.37c12.27,8.63,49.28,43.86,59.54,53.65
		c26.9-62.69,51.75-97.12,85.38-120.21l-22.46-25.39c-36.13,25.39-58.18,70.9-71.74,100C448.47,313.79,420.09,284.31,418.1,281.37z"
		/>
	<path class="st3" d="M417.63,404.51c-0.09,4.12,19.61,5.06,40.08,2.58c17.13-2.07,29.14-5.93,29.2-8.91c0.05-2.45-8-4.01-20.38-3.9
		l0.38-10.67c25.24-2.28,48.74-4.41,49.28-4.48c4.68-0.61,4.42-6.55,4.41-6.75c0-0.01,0-0.02,0-0.03v-95.26
		c0-1.77-1.15-3.4-2.59-3.64l-6.73-1.16c-2.03,2.39-4.03,4.85-6.01,7.42l7.04,1.06v80.78l-128.34,7.1v-107.2l80.95,12.18
		c1.6-2.79,3.27-5.61,5.02-8.44l-96.25-16.52l-0.09-0.04c-4.68-0.77-8.36,3.39-8.36,6.74v132.95c0,2.47,2.23,4.26,4.96,4
		c0,0,31.41-2.83,66.96-6.03l-0.98,10.91C425.42,399.21,417.69,401.95,417.63,404.51z"/>
</g>
</svg>
