<?xml version="1.0" encoding="utf-8"?>
<!-- Generator: Adobe Illustrator 25.4.1, SVG Export Plug-In . SVG Version: 6.00 Build 0)  -->
<svg version="1.1" id="Color-WhiteBorder" xmlns="http://www.w3.org/2000/svg" xmlns:xlink="http://www.w3.org/1999/xlink" x="0px"
	 y="0px" viewBox="0 0 864 627.57" style="enable-background:new 0 0 864 627.57;" xml:space="preserve">
<style type="text/css">
	.st0{fill:#FFFFFF;}
	.st1{fill:#61B222;}
	.st2{fill:#2868AD;}
	.st3{fill:#142D41;}
</style>
<g>
	<polygon class="st0" points="152.39,543.42 173.24,543.42 162.66,519.67 	"/>
	<path class="st0" d="M102.14,520.92H79.95v13.64h22.19c5.88,0,8.55-2.51,8.55-6.66v-0.31
		C110.68,523.51,108.02,520.92,102.14,520.92z"/>
	<path class="st0" d="M690.72,520.92h-22.19v13.64h22.19c5.88,0,8.55-2.51,8.55-6.66v-0.31
		C699.26,523.51,696.6,520.92,690.72,520.92z"/>
	<path class="st0" d="M844.37,530.09c0-19.19-8.31-37.34-22.8-49.79c-14.09-12.11-32.53-18.25-54.81-18.25h-3.61
		c-15.33,0-27.63,3.19-37.38,7.76c-9.76-4.58-21.09-6.9-33.88-6.9h-39.51c-7.02,0-13.67,1.61-19.6,4.48
		c-5.98-2.88-12.62-4.48-19.52-4.48h-18.03c-6.09,0-12.02,1.23-17.48,3.54c-1.65-0.69-3.34-1.28-5.06-1.77
		c15.56-10.7,29.99-23.21,42.9-37.39c1.48-1.62,2.8-3.34,4.01-5.14c1.58-1.45,3.09-3.01,4.47-4.7
		c36.11-44.08,55.99-99.72,55.99-156.65c0-25.53-3.91-50.76-11.62-74.98c-0.68-2.15-1.54-4.22-2.52-6.21
		c-0.47-2.2-1.11-4.38-1.92-6.52c-14.46-38.07-38.44-72.38-69.34-99.21C563.48,46.8,525.8,27.83,485.68,19.02
		c-2.14-0.47-4.3-0.77-6.46-0.92c-2.07-0.66-4.21-1.19-6.4-1.55c-13.3-2.19-26.87-3.3-40.31-3.3c-35.39,0-69.61,7.36-101.7,21.87
		c-30.95,13.99-58.29,33.87-81.25,59.07c-1.51,1.66-2.87,3.43-4.1,5.26c-1.63,1.48-3.18,3.08-4.6,4.82
		c-36.04,44.06-55.89,99.65-55.89,156.52c0,25.64,3.94,50.96,11.71,75.27c0.67,2.1,1.51,4.13,2.47,6.08c0.47,2.16,1.1,4.3,1.9,6.4
		c14.52,38.19,38.6,72.58,69.65,99.44c5.82,5.03,11.86,9.79,18.1,14.24c-6.98,0.41-13.26,1.5-18.92,3.07
		c-4.55-1.55-9.42-2.4-14.5-2.4h-61.23c-3.52,0-6.94,0.42-10.23,1.18c-3.31-0.77-6.74-1.18-10.23-1.18h-21.64
		c-7.12,0-13.97,1.68-20.09,4.74c-8.52-3.14-18.09-4.74-28.67-4.74H63.8c-24.85,0-45,20.15-45,45v58.33c0,24.85,20.15,45,45,45
		h16.15c8.46,0,16.37-2.35,23.14-6.41c6.88,4.12,14.84,6.41,23.12,6.41h16.23c7.28,0,14.28-1.75,20.5-4.94
		c6.22,3.19,13.22,4.94,20.5,4.94h17.33c2.7,0,5.37-0.26,7.98-0.73c2.6,0.47,5.28,0.73,8.01,0.73h16.07c9,0,17.38-2.65,24.41-7.2
		c10.61,5.09,23.24,8.07,37.84,8.07h3.61c10.94,0,20.27-1.57,28.18-4c5.11,2.02,10.67,3.14,16.5,3.14h16.15
		c5.74,0,11.22-1.07,16.27-3.03c5.05,1.96,10.53,3.03,16.27,3.03h16.15c7.39,0,14.35-1.79,20.5-4.94c6.15,3.15,13.11,4.94,20.5,4.94
		h15.52c3.04,0,6.01-0.3,8.88-0.88c2.88,0.58,5.84,0.88,8.84,0.88h12.62c3.01,0,5.96-0.3,8.84-0.88c2.87,0.57,5.84,0.88,8.88,0.88
		h15.76c7.32,0,14.23-1.76,20.34-4.86c6.11,3.1,13.02,4.86,20.34,4.86h16.15c13.31,0,25.27-5.79,33.51-14.98
		c8.24,9.19,20.2,14.98,33.51,14.98h16.15c15.45,0,29.09-7.79,37.19-19.66c0.4-0.06,0.79-0.13,1.19-0.2
		c13.15,12.51,31.98,20.72,56.24,20.72h3.61c28.25,0,45.83-10.44,55.61-19.2c13.98-12.52,22-30.47,22-49.24v-0.24
		c0-2.24-0.16-4.44-0.48-6.59c0.32-2.15,0.48-4.35,0.48-6.58V530.09z M103.31,547.58H79.95v18.66H63.8v-58.33h39.51
		c18.42,0,24.15,8.08,24.15,19.36v0.86C127.46,539.19,121.58,547.58,103.31,547.58z M183.43,566.23l-4.78-10.82h-31.52l-4.7,10.82
		H126.2l25.87-58.33h21.64l27.05,58.33H183.43z M255.4,521.23h-22.58v45h-16.07v-45h-22.58v-13.33h61.23V521.23z M635.07,260.79
		c0,48.57-17.19,93.2-45.81,128.14l-30.99-138.48c7.26-29.77,11.33-55.67,13.06-67.98l54.24,17
		C631.73,218.82,635.07,239.42,635.07,260.79z M476.03,62.97c67.14,14.75,121.9,62.91,145.91,126.1l-61.41-19.23l-121.1-57.52
		l-27.98,10.85l-0.66-0.21L476.03,62.97z M476.62,337.73c-0.06,2.89-11.72,6.63-28.34,8.64c-19.86,2.4-38.99,1.49-38.9-2.5
		c0.05-2.49,7.56-5.15,18.01-7.09l0.96-10.59c-34.5,3.11-64.99,5.86-64.99,5.86c-2.65,0.25-4.82-1.49-4.82-3.89V199.15
		c0-3.26,3.57-7.29,8.12-6.55l0.08,0.04l93.4,16.04c-1.7,2.75-3.32,5.48-4.88,8.19l-78.55-11.82v104.03l124.55-6.89v-78.4
		l-6.83-1.03c1.92-2.49,3.87-4.88,5.84-7.2l6.53,1.12c1.39,0.24,2.51,1.82,2.51,3.54v92.44c0,0.01,0,0.02,0,0.03
		c0.01,0.19,0.26,5.95-4.28,6.55c-0.53,0.07-23.33,2.14-47.82,4.35l-0.37,10.35C468.86,333.84,476.68,335.36,476.62,337.73z
		 M447.87,300.08c-9.96-9.5-45.88-43.69-57.79-52.07c4.8-5.28,16.33-18.94,19.75-23.65c1.93,2.86,29.47,31.46,29.47,31.46
		c13.16-28.24,34.56-72.41,69.62-97.04l21.79,24.64C498.09,205.83,473.98,239.24,447.87,300.08z M432.52,58.25
		c11.24,0,22.26,0.93,33,2.7l-80.88,74.37l-90.24,40.89l-11.57-51.71C319.9,83.82,373.28,58.25,432.52,58.25z M229.98,260.79
		c0-48.52,17.16-93.11,45.72-128.03c1.27,5.96,4.08,18.99,7.27,32.26c12.15,50.62,23.33,88.1,33.11,115.88
		c3.39,10.36,7.13,20.8,11.23,30.98c4.57,11.33,10.06,21.65,16.08,31.08c2.87,4.75,5.29,8.15,7.22,10.54
		c1.2,1.63,2.41,3.24,3.63,4.81l-114.67-35.96C233.35,302.93,229.98,282.25,229.98,260.79z M243.13,332.56l121.38,37.96
		c27.93,30.7,58.46,46.43,66.51,50.25l-41.33,38C322.26,444.18,267.22,395.93,243.13,332.56z M331.28,530.25h-16.62
		c-0.24-1.65-2.35-9.88-17.8-9.88c-14.27,0-18.74,8-18.74,15.84v1.1c0,7.21,4.55,16.39,18.82,16.39c15.52,0,17.48-8.47,17.72-10.27
		h16.62v0.24c0,10.66-7.84,23.44-32.61,23.44h-3.61c-26.66,0-33.71-17.09-33.71-29.01v-2.35c0-12.15,7.06-28.69,33.71-28.69h3.61
		c24.46,0,32.61,12,32.61,23.05V530.25z M408.19,566.23h-16.15v-23.44H359.5v23.44h-16.15v-58.33h16.15v21.64h32.54v-21.64h16.15
		V566.23z M528.52,566.23h-15.76v-38.18l-17.72,38.18h-12.62l-17.72-38.18v38.18h-15.52v-58.33h21.48l18.58,39.51l19.13-39.51h20.15
		V566.23z M432.52,463.33c-11.17,0-22.12-0.92-32.8-2.67c15.65-14.46,33.5-30.9,41.34-37.99c14.26-11.41,26.85-20.96,38.18-30.59
		c22.12-18.2,46.82-45.25,60.97-82.39c5.57-14.62,10.28-29.78,14.24-44.43c2.97,13.53,18.63,87.88,27.86,131.72
		C545.24,437.72,491.82,463.33,432.52,463.33z M585.36,544.99v21.25h-16.15v-21.33l-28.93-37h19.99l17.48,23.13l17.48-23.13h18.03
		L585.36,544.99z M716.04,528.13c0,11.05-5.88,19.44-24.15,19.44h-23.36v18.66h-16.15v-58.33h39.51c18.42,0,24.15,8.08,24.15,19.36
		V528.13z M799.37,530.25h-16.62c-0.24-1.65-2.35-9.88-17.8-9.88c-14.27,0-18.74,8-18.74,15.84v1.1c0,7.21,4.55,16.39,18.82,16.39
		c15.52,0,17.48-8.47,17.72-10.27h16.62v0.24c0,10.66-7.84,23.44-32.61,23.44h-3.61c-26.66,0-33.71-17.09-33.71-29.01v-2.35
		c0-12.15,7.06-28.69,33.71-28.69h3.61c24.46,0,32.61,12,32.61,23.05V530.25z"/>
	<path class="st1" d="M127.46,527.27c0-11.29-5.72-19.36-24.15-19.36H63.8v58.33h16.15v-18.66h23.36c18.27,0,24.15-8.39,24.15-19.44
		V527.27z M110.68,527.9c0,4.16-2.67,6.66-8.55,6.66H79.95v-13.64h22.19c5.88,0,8.55,2.59,8.55,6.66V527.9z"/>
	<path class="st1" d="M152.07,507.91l-25.87,58.33h16.23l4.7-10.82h31.52l4.78,10.82h17.33l-27.05-58.33H152.07z M152.39,543.42
		l10.27-23.75l10.58,23.75H152.39z"/>
	<polygon class="st1" points="194.17,521.23 216.75,521.23 216.75,566.23 232.82,566.23 232.82,521.23 255.4,521.23 255.4,507.91 
		194.17,507.91 	"/>
	<path class="st1" d="M298.67,507.04h-3.61c-26.66,0-33.71,16.54-33.71,28.69v2.35c0,11.92,7.06,29.01,33.71,29.01h3.61
		c24.77,0,32.61-12.78,32.61-23.44v-0.24h-16.62c-0.24,1.8-2.2,10.27-17.72,10.27c-14.27,0-18.82-9.17-18.82-16.39v-1.1
		c0-7.84,4.47-15.84,18.74-15.84c15.44,0,17.56,8.23,17.8,9.88h16.62v-0.16C331.28,519.04,323.13,507.04,298.67,507.04z"/>
	<polygon class="st1" points="392.04,529.54 359.5,529.54 359.5,507.91 343.35,507.91 343.35,566.23 359.5,566.23 359.5,542.79 
		392.04,542.79 392.04,566.23 408.19,566.23 408.19,507.91 392.04,507.91 	"/>
	<polygon class="st2" points="489.24,547.42 470.66,507.91 449.18,507.91 449.18,566.23 464.71,566.23 464.71,528.05 482.42,566.23 
		495.05,566.23 512.76,528.05 512.76,566.23 528.52,566.23 528.52,507.91 508.37,507.91 	"/>
	<polygon class="st2" points="577.75,531.03 560.27,507.91 540.28,507.91 569.21,544.91 569.21,566.23 585.36,566.23 585.36,544.99 
		613.27,507.91 595.24,507.91 	"/>
	<path class="st2" d="M691.89,507.91h-39.51v58.33h16.15v-18.66h23.36c18.27,0,24.15-8.39,24.15-19.44v-0.86
		C716.04,515.98,710.32,507.91,691.89,507.91z M699.26,527.9c0,4.16-2.67,6.66-8.55,6.66h-22.19v-13.64h22.19
		c5.88,0,8.55,2.59,8.55,6.66V527.9z"/>
	<path class="st2" d="M766.76,507.04h-3.61c-26.66,0-33.71,16.54-33.71,28.69v2.35c0,11.92,7.06,29.01,33.71,29.01h3.61
		c24.77,0,32.61-12.78,32.61-23.44v-0.24h-16.62c-0.24,1.8-2.2,10.27-17.72,10.27c-14.27,0-18.82-9.17-18.82-16.39v-1.1
		c0-7.84,4.47-15.84,18.74-15.84c15.44,0,17.56,8.23,17.8,9.88h16.62v-0.16C799.37,519.04,791.22,507.04,766.76,507.04z"/>
	<g>
		<path class="st2" d="M350.6,353.51c-1.92-2.38-4.35-5.79-7.22-10.54c-6.02-9.42-11.51-19.75-16.08-31.08
			c-4.1-10.18-7.84-20.63-11.23-30.98c-9.78-27.79-20.96-65.27-33.11-115.88c-3.18-13.27-6-26.3-7.27-32.26
			c-28.56,34.92-45.72,79.51-45.72,128.03c0,21.46,3.37,42.14,9.58,61.56l114.67,35.96C353.01,356.75,351.8,355.14,350.6,353.51z"/>
	</g>
	<g>
		<path class="st2" d="M582.31,396.99c-9.23-43.84-24.89-118.2-27.86-131.72c-3.97,14.65-8.68,29.81-14.24,44.43
			c-14.15,37.14-38.85,64.18-60.97,82.39c-11.32,9.63-23.91,19.18-38.18,30.59c-7.84,7.09-25.69,23.54-41.34,37.99
			c10.68,1.75,21.64,2.67,32.8,2.67C491.82,463.33,545.24,437.72,582.31,396.99z"/>
	</g>
	<g>
		<path class="st2" d="M558.27,250.45l30.99,138.48c28.61-34.93,45.81-79.56,45.81-128.14c0-21.37-3.34-41.97-9.5-61.32l-54.24-17
			C569.6,194.78,565.53,220.68,558.27,250.45z"/>
	</g>
	<g>
		<path class="st2" d="M411.45,123.17l27.98-10.85l121.1,57.52l61.41,19.23c-24.01-63.19-78.77-111.35-145.91-126.1l-65.23,60
			L411.45,123.17z"/>
	</g>
	<g>
		<path class="st2" d="M384.64,135.32l80.88-74.37c-10.74-1.77-21.76-2.7-33-2.7c-59.24,0-112.62,25.57-149.7,66.25l11.57,51.71
			L384.64,135.32z"/>
	</g>
	<g>
		<path class="st2" d="M389.69,458.76l41.33-38c-8.05-3.82-38.58-19.55-66.51-50.25l-121.38-37.96
			C267.22,395.93,322.26,444.18,389.69,458.76z"/>
	</g>
	<path class="st1" d="M508.93,158.78c-35.06,24.64-56.46,68.81-69.62,97.04c0,0-27.54-28.6-29.47-31.46
		c-3.42,4.71-14.96,18.37-19.75,23.65c11.9,8.38,47.83,42.57,57.79,52.07c26.1-60.83,50.22-94.25,82.86-116.66L508.93,158.78z"/>
	<path class="st3" d="M505.04,319.24c4.54-0.6,4.29-6.35,4.28-6.55c0-0.01,0-0.02,0-0.03v-92.44c0-1.71-1.12-3.3-2.51-3.54
		l-6.53-1.12c-1.97,2.32-3.91,4.71-5.84,7.2l6.83,1.03v78.4l-124.55,6.89V205.05l78.55,11.82c1.56-2.71,3.18-5.45,4.88-8.19
		l-93.4-16.04l-0.08-0.04c-4.55-0.75-8.12,3.29-8.12,6.55v129.02c0,2.39,2.17,4.13,4.82,3.89c0,0,30.48-2.74,64.99-5.86l-0.96,10.59
		c-10.45,1.94-17.95,4.6-18.01,7.09c-0.09,3.99,19.03,4.91,38.9,2.5c16.62-2.01,28.28-5.76,28.34-8.64
		c0.05-2.38-7.76-3.89-19.78-3.79l0.37-10.35C481.71,321.38,504.51,319.31,505.04,319.24z"/>
</g>
</svg>
