<?xml version="1.0" encoding="utf-8"?>
<!-- Generator: Adobe Illustrator 25.4.1, SVG Export Plug-In . SVG Version: 6.00 Build 0)  -->
<svg version="1.1" id="Color-WhiteBorder" xmlns="http://www.w3.org/2000/svg" xmlns:xlink="http://www.w3.org/1999/xlink" x="0px"
	 y="0px" viewBox="0 0 864 864" style="enable-background:new 0 0 864 864;" xml:space="preserve">
<style type="text/css">
	.st0{fill:#FFFFFF;}
	.st1{fill:#2868AD;}
	.st2{fill:#61B222;}
	.st3{fill:#142D41;}
</style>
<g>
	<path class="st0" d="M817.99,309.35c-1.14-3.57-2.71-6.94-4.64-10.05c-0.42-3.63-1.3-7.24-2.63-10.75
		c-23.67-62.29-62.91-118.43-113.48-162.35c-51.02-44.3-112.66-75.34-178.27-89.76c-3.21-0.71-6.44-1.05-9.66-1.05
		c-0.36,0-0.72,0.02-1.08,0.02c-3.26-1.38-6.7-2.42-10.29-3.01C476.18,28.82,453.99,27,432,27c-57.91,0-113.87,12.03-166.35,35.76
		c-50.64,22.9-95.38,55.42-132.98,96.68c-2.51,2.75-4.63,5.77-6.36,8.98c-2.88,2.16-5.54,4.67-7.88,7.53
		c-28.96,35.41-51.54,75.04-67.12,117.8C35.18,338.04,27,384.55,27,432c0,41.94,6.45,83.37,19.16,123.13
		c1.12,3.5,2.65,6.82,4.54,9.88c0.43,3.56,1.29,7.09,2.6,10.53c23.75,62.48,63.17,118.75,113.98,162.72
		c51.27,44.37,113.19,75.34,179.07,89.59c3.16,0.68,6.34,1.02,9.51,1.02c0.24,0,0.48-0.01,0.72-0.02c3.13,1.29,6.42,2.25,9.85,2.81
		C388.07,835.2,410.13,837,432,837c57.95,0,113.96-12.05,166.48-35.81c50.68-22.93,95.44-55.51,133.04-96.82
		c2.44-2.68,4.52-5.62,6.22-8.74c2.8-2.12,5.38-4.57,7.66-7.36c29.01-35.42,51.64-75.08,67.24-117.88
		C828.8,526.05,837,479.5,837,432C837,390.22,830.6,348.95,817.99,309.35z M509.32,80.39c119.34,26.22,216.67,111.82,259.34,224.14
		l-109.15-34.18L444.27,168.11l-49.73,19.29l-1.17-0.36L509.32,80.39z M510.38,568.76c-0.11,5.13-20.83,11.79-50.37,15.36
		c-35.31,4.27-69.29,2.65-69.14-4.45c0.1-4.43,13.43-9.15,32.01-12.6l1.7-18.82c-61.32,5.53-115.51,10.41-115.51,10.41
		c-4.71,0.44-8.56-2.65-8.56-6.91V322.44c0-5.79,6.35-12.97,14.43-11.63l0.15,0.07l166.02,28.5c-3.02,4.88-5.9,9.75-8.67,14.56
		l-139.62-21.02v184.91l221.38-12.24V366.25l-12.14-1.83c3.42-4.43,6.88-8.68,10.38-12.8l11.61,1.99c2.47,0.42,4.46,3.24,4.46,6.29
		v164.31c0,0.02,0,0.03,0,0.05c0.02,0.34,0.46,10.58-7.61,11.64c-0.93,0.12-41.47,3.79-85,7.73l-0.66,18.4
		C496.58,561.83,510.47,564.53,510.38,568.76z M459.27,501.83c-17.7-16.89-81.55-77.66-102.71-92.55
		c8.52-9.39,29.03-33.66,35.11-42.03c3.43,5.08,52.38,55.92,52.38,55.92c23.39-50.19,61.43-128.7,123.75-172.49l38.74,43.79
		C548.54,334.3,505.67,393.7,459.27,501.83z M432,72c19.97,0,39.56,1.66,58.65,4.8L346.88,208.99l-160.39,72.68l-20.56-91.92
		C231.82,117.45,326.7,72,432,72z M72,432c0-86.25,30.5-165.5,81.26-227.56c2.25,10.59,7.26,33.76,12.92,57.34
		c21.59,89.97,41.46,156.58,58.84,205.97c6.03,18.41,12.67,36.98,19.96,55.07c8.12,20.14,17.88,38.49,28.58,55.24
		c5.09,8.44,9.41,14.49,12.83,18.73c2.13,2.9,4.28,5.76,6.46,8.55L89.02,541.42C77.98,506.9,72,470.14,72,432z M355.86,783.87
		C236.01,757.96,138.19,672.2,95.36,559.55l215.75,67.47c49.65,54.56,103.91,82.52,118.22,89.31L355.86,783.87z M432,792
		c-19.85,0-39.32-1.64-58.3-4.75c27.82-25.7,59.55-54.93,73.48-67.53c25.35-20.28,47.73-37.25,67.85-54.37
		c39.32-32.36,83.22-80.42,108.37-146.44c9.89-25.98,18.27-52.92,25.32-78.97c5.27,24.04,33.12,156.2,49.52,234.12
		C632.33,746.48,537.38,792,432,792z M710.58,659.75l-55.09-246.13c12.91-52.91,20.14-98.95,23.21-120.83L775.11,323
		C786.07,357.4,792,394.02,792,432C792,518.33,761.44,597.66,710.58,659.75z"/>
	<g>
		<path class="st1" d="M286.39,596.79c-3.42-4.23-7.73-10.29-12.83-18.73c-10.7-16.75-20.46-35.1-28.58-55.24
			c-7.29-18.09-13.93-36.66-19.96-55.07c-17.38-49.39-37.26-116.01-58.84-205.97c-5.66-23.58-10.67-46.75-12.92-57.34
			C102.5,266.5,72,345.75,72,432c0,38.14,5.98,74.9,17.02,109.42l203.82,63.92C290.66,602.55,288.52,599.7,286.39,596.79z"/>
	</g>
	<g>
		<path class="st1" d="M623.4,518.92C598.25,584.94,554.35,633,515.03,665.36c-20.13,17.11-42.5,34.09-67.85,54.37
			c-13.94,12.6-45.66,41.83-73.48,67.53c18.98,3.1,38.46,4.75,58.3,4.75c105.39,0,200.34-45.52,266.23-117.93
			c-16.4-77.92-44.24-210.08-49.52-234.12C641.67,466,633.29,492.94,623.4,518.92z"/>
	</g>
	<g>
		<path class="st1" d="M678.7,292.78c-3.07,21.88-10.3,67.92-23.21,120.83l55.09,246.13C761.44,597.66,792,518.33,792,432
			c0-37.98-5.93-74.6-16.88-109L678.7,292.78z"/>
	</g>
	<g>
		<path class="st1" d="M394.54,187.4l49.73-19.29l215.24,102.24l109.15,34.18c-42.67-112.32-140-197.91-259.34-224.14L393.37,187.03
			L394.54,187.4z"/>
	</g>
	<g>
		<path class="st1" d="M346.88,208.99L490.65,76.8C471.55,73.66,451.97,72,432,72c-105.3,0-200.18,45.45-266.07,117.75l20.56,91.92
			L346.88,208.99z"/>
	</g>
	<g>
		<path class="st1" d="M311.11,627.02L95.36,559.55c42.83,112.65,140.64,198.41,260.5,224.32l73.47-67.54
			C415.02,709.54,360.76,681.58,311.11,627.02z"/>
	</g>
	<path class="st2" d="M567.81,250.68c-62.32,43.79-100.36,122.3-123.75,172.49c0,0-48.95-50.84-52.38-55.92
		c-6.08,8.37-26.59,32.64-35.11,42.03c21.16,14.89,85.01,75.66,102.71,92.55c46.4-108.13,89.26-167.53,147.27-207.35L567.81,250.68z
		"/>
	<path class="st3" d="M560.89,535.89c8.07-1.06,7.63-11.29,7.61-11.64c0-0.02,0-0.03,0-0.05V359.9c0-3.05-1.99-5.86-4.46-6.29
		l-11.61-1.99c-3.5,4.12-6.96,8.37-10.38,12.8l12.14,1.83v139.35l-221.38,12.24V332.92l139.62,21.02c2.77-4.82,5.65-9.68,8.67-14.56
		l-166.02-28.5l-0.15-0.07c-8.08-1.33-14.43,5.85-14.43,11.63v229.32c0,4.25,3.85,7.34,8.56,6.91c0,0,54.18-4.88,115.51-10.41
		l-1.7,18.82c-18.58,3.45-31.91,8.17-32.01,12.6c-0.16,7.1,33.83,8.72,69.14,4.45c29.54-3.58,50.26-10.23,50.37-15.36
		c0.09-4.22-13.8-6.92-35.15-6.74l0.66-18.4C519.42,539.69,559.95,536.02,560.89,535.89z"/>
</g>
</svg>
