<?xml version="1.0" encoding="utf-8"?>
<!-- Generator: Adobe Illustrator 25.4.1, SVG Export Plug-In . SVG Version: 6.00 Build 0)  -->
<svg version="1.1" id="Color-WhiteBorder" xmlns="http://www.w3.org/2000/svg" xmlns:xlink="http://www.w3.org/1999/xlink" x="0px"
	 y="0px" viewBox="0 0 864 427.9" style="enable-background:new 0 0 864 427.9;" xml:space="preserve">
<style type="text/css">
	.st0{fill:#FFFFFF;}
	.st1{fill:#61B222;}
	.st2{fill:#2868AD;}
</style>
<g>
	<polygon class="st0" points="278.66,181.62 316.83,181.62 297.46,138.13 	"/>
	<path class="st0" d="M202.32,153.2v-0.57c0-7.46-4.88-12.2-15.64-12.2h-40.61v24.97h40.61C197.44,165.4,202.32,160.81,202.32,153.2
		z"/>
	<path class="st0" d="M531.03,258.84h-25.8v15.87h25.8c6.84,0,9.94-2.92,9.94-7.75v-0.36C540.97,261.85,537.87,258.84,531.03,258.84
		z"/>
	<path class="st0" d="M746.89,71.61h-29.56c-11.42,0-21.84,4.25-29.78,11.26c-7.93-7.01-18.36-11.26-29.78-11.26h-29.56
		c-10.23,0-19.65,3.42-27.21,9.16c-15.42-7.12-33.67-10.74-54.58-10.74h-6.6c-19.54,0-35.39,3.55-48.15,8.81
		c-7.04-4.57-15.43-7.23-24.45-7.23H355.14c-6.68,0-13.02,1.47-18.72,4.08c-5.77-2.64-12.13-4.08-18.73-4.08h-39.61
		c-12.87,0-24.86,5.49-33.24,14.67c-14.73-9.74-33.5-14.67-56.01-14.67H116.5c-24.85,0-45,20.15-45,45v106.77
		c0,24.85,20.15,45,45,45h27.33v43.18c0,24.85,20.15,45,45,45h18.05c3.55,0,7.01-0.41,10.32-1.19c3.33,0.78,6.77,1.19,10.28,1.19
		h14.68c3.51,0,6.96-0.41,10.28-1.19c3.31,0.78,6.77,1.19,10.32,1.19h18.33c13.51,0,25.63-5.97,33.88-15.4
		c8.25,9.43,20.36,15.4,33.88,15.4h18.78c24.85,0,45-20.15,45-45v-9.67l23.42-31.12c1.04-1.38,1.97-2.83,2.83-4.3
		c0.86-0.26,1.72-0.54,2.56-0.85v45.94c0,24.85,20.15,45,45,45h18.78c16.6,0,31.09-8.98,38.89-22.35
		c8.82-1.01,16.86-3.22,24.08-6.59c0.83,1.05,1.68,2.08,2.57,3.08c10.84,12.26,30.9,26.87,64.94,26.87h4.19
		c30.53,0,49.37-11.13,59.79-20.46c14.71-13.17,23.14-32.05,23.14-51.81v-0.27c0-2.61-0.22-5.17-0.65-7.66
		c0.43-2.49,0.65-5.05,0.65-7.66v-0.18c0-0.38-0.02-0.76-0.03-1.14h24.09c24.85,0,45-20.15,45-45V116.61
		C791.89,91.75,771.75,71.61,746.89,71.61z M146.06,189.22v34.16H116.5V116.61h72.33c33.72,0,44.2,14.78,44.2,35.45v1.58
		c0,20.23-10.76,35.59-44.2,35.59H146.06z M281.1,311.55h-18.33v-44.41l-20.6,44.41h-14.68l-20.6-44.41v44.41h-18.05v-67.85h24.98
		l21.61,45.96l22.25-45.96h23.43V311.55z M269.04,203.57l-8.61,19.8h-29.71l47.36-106.77h39.61l49.51,106.77h-31.72l-8.75-19.8
		H269.04z M367.63,286.84v24.71h-18.78v-24.8l-33.64-43.04h23.25l20.33,26.9l20.33-26.9h20.97L367.63,286.84z M467.22,141h-41.33
		v82.37h-29.42V141h-41.33v-24.4h112.08V141z M560.48,267.23c0,12.86-6.84,22.61-28.08,22.61h-27.17v21.7h-18.78v-67.85h45.95
		c21.43,0,28.08,9.39,28.08,22.52V267.23z M546.42,224.96h-6.6c-48.79,0-61.71-31.28-61.71-53.1v-4.31
		c0-22.24,12.92-52.52,61.71-52.52h6.6c44.77,0,59.7,21.96,59.7,42.19v0.29H575.7c-0.43-3.01-4.31-18.08-32.58-18.08
		c-26.12,0-34.3,14.64-34.3,28.99v2.01c0,13.2,8.32,29.99,34.44,29.99c28.41,0,32-15.5,32.43-18.8h30.42v0.43
		C606.12,201.56,591.77,224.96,546.42,224.96z M677.83,269.7H658.5c-0.27-1.92-2.74-11.49-20.7-11.49
		c-16.59,0-21.79,9.3-21.79,18.42v1.28c0,8.39,5.29,19.06,21.88,19.06c18.05,0,20.33-9.85,20.6-11.95h19.33v0.27
		c0,12.4-9.12,27.27-37.93,27.27h-4.19c-31,0-39.2-19.88-39.2-33.74v-2.73c0-14.13,8.21-33.38,39.2-33.38h4.19
		c28.45,0,37.93,13.95,37.93,26.81V269.7z M746.89,223.38h-29.56v-42.91h-59.56v42.91h-29.56V116.61h29.56v39.61h59.56v-39.61h29.56
		V223.38z"/>
	<path class="st1" d="M233.03,153.63v-1.58c0-20.67-10.48-35.45-44.2-35.45H116.5v106.77h29.56v-34.16h42.77
		C222.27,189.22,233.03,173.87,233.03,153.63z M146.06,165.4v-24.97h40.61c10.76,0,15.64,4.73,15.64,12.2v0.57
		c0,7.61-4.88,12.2-15.64,12.2H146.06z"/>
	<path class="st1" d="M335.49,223.38h31.72l-49.51-106.77h-39.61l-47.36,106.77h29.71l8.61-19.8h57.69L335.49,223.38z
		 M278.66,181.62l18.8-43.48l19.37,43.48H278.66z"/>
	<polygon class="st1" points="355.14,141 396.47,141 396.47,223.38 425.89,223.38 425.89,141 467.22,141 467.22,116.61 
		355.14,116.61 	"/>
	<path class="st1" d="M606.12,181.62H575.7c-0.43,3.3-4.02,18.8-32.43,18.8c-26.12,0-34.44-16.79-34.44-29.99v-2.01
		c0-14.35,8.18-28.99,34.3-28.99c28.27,0,32.15,15.07,32.58,18.08h30.42v-0.29c0-20.23-14.93-42.19-59.7-42.19h-6.6
		c-48.79,0-61.71,30.28-61.71,52.52v4.31c0,21.81,12.92,53.1,61.71,53.1h6.6c45.35,0,59.7-23.39,59.7-42.91V181.62z"/>
	<polygon class="st1" points="717.33,156.21 657.77,156.21 657.77,116.61 628.21,116.61 628.21,223.38 657.77,223.38 657.77,180.47 
		717.33,180.47 717.33,223.38 746.89,223.38 746.89,116.61 717.33,116.61 	"/>
	<polygon class="st2" points="235.42,289.67 213.81,243.71 188.83,243.71 188.83,311.55 206.88,311.55 206.88,267.14 227.49,311.55 
		242.16,311.55 262.77,267.14 262.77,311.55 281.1,311.55 281.1,243.71 257.66,243.71 	"/>
	<polygon class="st2" points="358.79,270.61 338.46,243.71 315.21,243.71 348.85,286.75 348.85,311.55 367.63,311.55 367.63,286.84 
		400.09,243.71 379.12,243.71 	"/>
	<path class="st2" d="M532.4,243.71h-45.95v67.85h18.78v-21.7h27.17c21.24,0,28.08-9.76,28.08-22.61v-1
		C560.48,253.1,553.82,243.71,532.4,243.71z M540.97,266.96c0,4.83-3.1,7.75-9.94,7.75h-25.8v-15.87h25.8
		c6.84,0,9.94,3.01,9.94,7.75V266.96z"/>
	<path class="st2" d="M639.9,242.7h-4.19c-31,0-39.2,19.24-39.2,33.38v2.73c0,13.86,8.21,33.74,39.2,33.74h4.19
		c28.81,0,37.93-14.86,37.93-27.27v-0.27H658.5c-0.27,2.1-2.55,11.95-20.6,11.95c-16.59,0-21.88-10.67-21.88-19.06v-1.28
		c0-9.12,5.2-18.42,21.79-18.42c17.96,0,20.42,9.57,20.7,11.49h19.33v-0.18C677.83,256.66,668.34,242.7,639.9,242.7z"/>
</g>
</svg>
