<?xml version="1.0" encoding="utf-8"?>
<!-- Generator: Adobe Illustrator 25.4.1, SVG Export Plug-In . SVG Version: 6.00 Build 0)  -->
<svg version="1.1" id="Color-WhiteBorder" xmlns="http://www.w3.org/2000/svg" xmlns:xlink="http://www.w3.org/1999/xlink" x="0px"
	 y="0px" viewBox="0 0 864 352.34" style="enable-background:new 0 0 864 352.34;" xml:space="preserve">
<style type="text/css">
	.st0{fill:#FFFFFF;}
	.st1{fill:#61B222;}
	.st2{fill:#2868AD;}
	.st3{fill:#142D41;}
</style>
<g>
	<path class="st0" d="M613.69,215.08h-19.42v11.95h19.42c5.15,0,7.48-2.2,7.48-5.83v-0.27
		C621.17,217.35,618.83,215.08,613.69,215.08z"/>
	<polygon class="st0" points="423.7,156.95 452.44,156.95 437.86,124.21 	"/>
	<path class="st0" d="M366.24,135.56v-0.43c0-5.62-3.67-9.18-11.78-9.18h-30.57v18.8h30.57
		C362.56,144.74,366.24,141.28,366.24,135.56z"/>
	<path class="st0" d="M776.19,63.01h-22.25c-8.16,0-15.82,2.17-22.42,5.97c-6.6-3.8-14.25-5.97-22.42-5.97h-22.25
		c-7.81,0-15.15,1.99-21.55,5.49c-11.74-4.44-25.12-6.68-40.02-6.68h-4.97c-13.85,0-25.55,2.15-35.38,5.52
		c-5.84-2.78-12.38-4.33-19.28-4.33h-84.37c-4.93,0-9.66,0.8-14.1,2.26c-4.48-1.48-9.22-2.26-14.09-2.26h-29.82
		c-9.69,0-18.88,3.12-26.41,8.58c-11.5-5.69-25.14-8.58-40.78-8.58h-54.45c-13.68,0-25.92,6.11-34.18,15.75
		c-17.24-16.19-38.73-27.72-62.64-32.98c-1.14-0.25-2.29-0.44-3.44-0.6c-1.15-0.28-2.32-0.54-3.5-0.73
		c-7.17-1.18-14.47-1.78-21.71-1.78c-37.41,0-73.35,15.89-98.6,43.61c-0.81,0.89-1.57,1.82-2.31,2.77
		c-0.82,0.85-1.62,1.73-2.38,2.66c-19.43,23.75-30.12,53.72-30.12,84.38c0,13.81,2.13,27.47,6.32,40.58
		c0.35,1.11,0.76,2.19,1.2,3.26c0.34,1.17,0.72,2.33,1.16,3.48c16.14,42.45,52.22,73.51,96.53,83.08c1.08,0.23,2.16,0.41,3.25,0.56
		c1.11,0.27,2.24,0.51,3.38,0.69c7.12,1.16,14.38,1.75,21.58,1.75c37.44,0,73.41-15.92,98.67-43.67c0.79-0.87,1.53-1.78,2.25-2.7
		c0.8-0.83,1.58-1.69,2.32-2.59c6.91-8.44,12.71-17.66,17.32-27.41c1.61,0.18,3.25,0.27,4.91,0.27h9.45v21.38
		c0,24.85,20.15,45,45,45h13.59c2.65,0,5.25-0.23,7.77-0.67c2.53,0.44,5.12,0.67,7.74,0.67h11.05c2.62,0,5.21-0.23,7.74-0.67
		c2.52,0.44,5.12,0.67,7.77,0.67h13.8c9.47,0,18.25-2.93,25.5-7.93c7.25,5,16.03,7.93,25.5,7.93h14.14
		c23.17,0,42.25-17.52,44.72-40.03c2.48,22.51,21.55,40.03,44.72,40.03h14.14c14.61,0,27.59-6.96,35.81-17.75
		c2.9-0.55,5.7-1.26,8.4-2.12c13.55,13.33,32.53,20.62,54.01,20.62h3.16c48.29,0,73.55-32.96,73.55-65.53v-0.21
		c0-0.47-0.03-0.93-0.04-1.4h7.04c24.85,0,45-20.15,45-45v-80.38C821.19,83.16,801.04,63.01,776.19,63.01z M258.85,144.78
		l-26.81-8.39l-52.86-25.11l-12.21,4.74l-0.29-0.09l28.47-26.19C224.46,96.17,248.37,117.19,258.85,144.78z M195.42,209.67
		c-0.03,1.26-5.12,2.89-12.37,3.77c-8.67,1.05-17.02,0.65-16.98-1.09c0.02-1.09,3.3-2.25,7.86-3.09l0.42-4.62
		c-15.06,1.36-28.37,2.56-28.37,2.56c-1.16,0.11-2.1-0.65-2.1-1.7v-56.32c0-1.42,1.56-3.18,3.54-2.86l0.04,0.02l40.77,7
		c-0.74,1.2-1.45,2.39-2.13,3.58l-34.29-5.16v45.41l54.37-3.01v-34.22l-2.98-0.45c0.84-1.09,1.69-2.13,2.55-3.14l2.85,0.49
		c0.61,0.1,1.1,0.8,1.1,1.54v40.35c0,0,0,0.01,0,0.01c0,0.08,0.11,2.6-1.87,2.86c-0.23,0.03-10.18,0.93-20.88,1.9l-0.16,4.52
		C192.03,207.97,195.44,208.63,195.42,209.67z M182.86,193.23c-4.35-4.15-20.03-19.07-25.22-22.73c2.09-2.3,7.13-8.27,8.62-10.32
		c0.84,1.25,12.86,13.73,12.86,13.73c5.74-12.33,15.09-31.61,30.39-42.36l9.51,10.75C204.79,152.09,194.26,166.68,182.86,193.23z
		 M176.17,87.67c4.9,0,9.71,0.41,14.4,1.18l-35.31,32.46l-39.39,17.85l-5.05-22.57C127,98.83,150.31,87.67,176.17,87.67z
		 M87.75,176.08c0-21.18,7.49-40.64,19.96-55.89c0.55,2.6,1.78,8.29,3.17,14.08c5.3,22.1,10.18,38.46,14.45,50.58
		c1.48,4.52,3.11,9.08,4.9,13.52c1.99,4.95,4.39,9.45,7.02,13.57c1.25,2.07,2.31,3.56,3.15,4.6c0.52,0.71,1.05,1.41,1.59,2.1
		l-50.06-15.7C89.22,194.48,87.75,185.45,87.75,176.08z M93.49,207.41l52.98,16.57c12.19,13.4,25.52,20.27,29.03,21.93l-18.04,16.59
		C128.03,256.13,104.01,235.07,93.49,207.41z M176.17,264.49c-4.87,0-9.66-0.4-14.32-1.17c6.83-6.31,14.62-13.49,18.05-16.58
		c6.23-4.98,11.72-9.15,16.66-13.35c9.66-7.95,20.44-19.75,26.61-35.96c2.43-6.38,4.49-13,6.22-19.39c1.3,5.9,8.13,38.36,12.16,57.5
		C225.37,253.32,202.05,264.49,176.17,264.49z M244.58,232.02l-13.53-60.45c3.17-12.99,4.95-24.3,5.7-29.68l23.68,7.42
		c2.69,8.45,4.15,17.44,4.15,26.77C264.58,197.29,257.07,216.77,244.58,232.02z M323.89,162.67v25.71h-22.25v-80.38h54.45
		c25.39,0,33.27,11.13,33.27,26.68v1.19c0,15.23-8.1,26.79-33.27,26.79H323.89z M425.54,254.76h-13.8v-33.43l-15.51,33.43h-11.05
		l-15.51-33.43v33.43h-13.59v-51.08h18.81l16.27,34.6l16.75-34.6h17.64V254.76z M416.47,173.48l-6.48,14.91h-22.36l35.65-80.38
		h29.82l37.27,80.38h-23.88l-6.59-14.91H416.47z M490.68,236.16v18.6h-14.14v-18.67l-25.33-32.4h17.5l15.31,20.25l15.31-20.25h15.79
		L490.68,236.16z M565.65,126.37h-31.11v62.01h-22.15v-62.01h-31.11v-18.37h84.37V126.37z M635.86,221.4
		c0,9.68-5.15,17.02-21.14,17.02h-20.45v16.34h-14.14v-51.08h34.59c16.13,0,21.14,7.07,21.14,16.96V221.4z M625.28,189.57h-4.97
		c-36.73,0-46.45-23.55-46.45-39.97v-3.24c0-16.75,9.72-39.54,46.45-39.54h4.97c33.71,0,44.94,16.53,44.94,31.76v0.22h-22.9
		c-0.32-2.27-3.24-13.61-24.52-13.61c-19.66,0-25.82,11.02-25.82,21.82v1.51c0,9.94,6.27,22.58,25.93,22.58
		c21.39,0,24.09-11.67,24.42-14.15h22.9v0.32C670.22,171.96,659.42,189.57,625.28,189.57z M724.2,223.25h-14.55
		c-0.21-1.44-2.06-8.65-15.58-8.65c-12.49,0-16.4,7-16.4,13.87v0.96c0,6.32,3.98,14.35,16.47,14.35c13.59,0,15.31-7.42,15.51-8.99
		h14.55v0.21c0,9.34-6.86,20.53-28.55,20.53h-3.16c-23.34,0-29.51-14.96-29.51-25.4v-2.06c0-10.64,6.18-25.13,29.51-25.13h3.16
		c21.41,0,28.55,10.5,28.55,20.18V223.25z M776.19,188.39h-22.25v-32.3H709.1v32.3h-22.25v-80.38h22.25v29.82h44.83v-29.82h22.25
		V188.39z"/>
	<path class="st1" d="M389.36,135.88v-1.19c0-15.56-7.89-26.68-33.27-26.68h-54.45v80.38h22.25v-25.71h32.19
		C381.25,162.67,389.36,151.11,389.36,135.88z M323.89,144.74v-18.8h30.57c8.1,0,11.78,3.56,11.78,9.18v0.43
		c0,5.73-3.67,9.18-11.78,9.18H323.89z"/>
	<path class="st1" d="M466.48,188.39h23.88l-37.27-80.38h-29.82l-35.65,80.38h22.36l6.48-14.91h43.43L466.48,188.39z M423.7,156.95
		l14.15-32.73l14.58,32.73H423.7z"/>
	<polygon class="st1" points="481.28,126.37 512.39,126.37 512.39,188.39 534.54,188.39 534.54,126.37 565.65,126.37 565.65,108.01 
		481.28,108.01 	"/>
	<path class="st1" d="M670.22,156.95h-22.9c-0.32,2.49-3.02,14.15-24.42,14.15c-19.66,0-25.93-12.64-25.93-22.58v-1.51
		c0-10.8,6.16-21.82,25.82-21.82c21.28,0,24.2,11.34,24.52,13.61h22.9v-0.22c0-15.23-11.24-31.76-44.94-31.76h-4.97
		c-36.73,0-46.45,22.79-46.45,39.54v3.24c0,16.42,9.72,39.97,46.45,39.97h4.97c34.14,0,44.94-17.61,44.94-32.3V156.95z"/>
	<polygon class="st1" points="753.93,137.83 709.1,137.83 709.1,108.01 686.85,108.01 686.85,188.39 709.1,188.39 709.1,156.08 
		753.93,156.08 753.93,188.39 776.19,188.39 776.19,108.01 753.93,108.01 	"/>
	<polygon class="st2" points="391.15,238.29 374.89,203.69 356.08,203.69 356.08,254.76 369.67,254.76 369.67,221.33 385.18,254.76 
		396.23,254.76 411.74,221.33 411.74,254.76 425.54,254.76 425.54,203.69 407.9,203.69 	"/>
	<polygon class="st2" points="484.03,223.94 468.72,203.69 451.22,203.69 476.54,236.09 476.54,254.76 490.68,254.76 490.68,236.16 
		515.12,203.69 499.33,203.69 	"/>
	<path class="st2" d="M614.72,203.69h-34.59v51.08h14.14v-16.34h20.45c15.99,0,21.14-7.34,21.14-17.02v-0.76
		C635.86,210.76,630.85,203.69,614.72,203.69z M621.17,221.19c0,3.64-2.33,5.83-7.48,5.83h-19.42v-11.95h19.42
		c5.15,0,7.48,2.27,7.48,5.84V221.19z"/>
	<path class="st2" d="M695.64,202.93h-3.16c-23.34,0-29.51,14.49-29.51,25.13v2.06c0,10.44,6.18,25.4,29.51,25.4h3.16
		c21.69,0,28.55-11.19,28.55-20.53v-0.21h-14.55c-0.21,1.58-1.92,8.99-15.51,8.99c-12.49,0-16.47-8.03-16.47-14.35v-0.96
		c0-6.86,3.91-13.87,16.4-13.87c13.52,0,15.37,7.21,15.58,8.65h14.55v-0.14C724.2,213.44,717.06,202.93,695.64,202.93z"/>
	<g>
		<path class="st2" d="M140.41,216.55c-0.84-1.04-1.9-2.53-3.15-4.6c-2.63-4.11-5.02-8.62-7.02-13.57c-1.79-4.44-3.42-9-4.9-13.52
			c-4.27-12.13-9.15-28.49-14.45-50.58c-1.39-5.79-2.62-11.48-3.17-14.08c-12.47,15.24-19.96,34.71-19.96,55.89
			c0,9.37,1.47,18.39,4.18,26.87l50.06,15.7C141.46,217.97,140.93,217.27,140.41,216.55z"/>
	</g>
	<g>
		<path class="st2" d="M223.17,197.43c-6.18,16.21-16.96,28.02-26.61,35.96c-4.94,4.2-10.44,8.37-16.66,13.35
			c-3.42,3.09-11.21,10.27-18.05,16.58c4.66,0.76,9.44,1.17,14.32,1.17c25.88,0,49.2-11.18,65.38-28.96
			c-4.03-19.14-10.87-51.59-12.16-57.5C227.66,184.43,225.6,191.05,223.17,197.43z"/>
	</g>
	<g>
		<path class="st2" d="M236.75,141.89c-0.75,5.37-2.53,16.68-5.7,29.68l13.53,60.45c12.49-15.25,19.99-34.73,19.99-55.93
			c0-9.33-1.46-18.32-4.15-26.77L236.75,141.89z"/>
	</g>
	<g>
		<path class="st2" d="M166.97,116.01l12.21-4.74l52.86,25.11l26.81,8.39c-10.48-27.58-34.38-48.61-63.69-55.05l-28.47,26.19
			L166.97,116.01z"/>
	</g>
	<g>
		<path class="st2" d="M155.26,121.31l35.31-32.46c-4.69-0.77-9.5-1.18-14.4-1.18c-25.86,0-49.16,11.16-65.34,28.92l5.05,22.57
			L155.26,121.31z"/>
	</g>
	<g>
		<path class="st2" d="M146.48,223.98l-52.98-16.57c10.52,27.67,34.54,48.73,63.98,55.09l18.04-16.59
			C172,244.24,158.67,237.38,146.48,223.98z"/>
	</g>
	<path class="st1" d="M209.52,131.55c-15.3,10.75-24.65,30.03-30.39,42.36c0,0-12.02-12.48-12.86-13.73
		c-1.49,2.05-6.53,8.02-8.62,10.32c5.2,3.66,20.88,18.58,25.22,22.73c11.4-26.55,21.92-41.14,36.17-50.92L209.52,131.55z"/>
	<path class="st3" d="M207.82,201.6c1.98-0.26,1.87-2.77,1.87-2.86c0,0,0-0.01,0-0.01v-40.35c0-0.75-0.49-1.44-1.1-1.54l-2.85-0.49
		c-0.86,1.01-1.71,2.06-2.55,3.14l2.98,0.45v34.22l-54.37,3.01v-45.41l34.29,5.16c0.68-1.18,1.39-2.38,2.13-3.58l-40.77-7
		l-0.04-0.02c-1.98-0.33-3.54,1.44-3.54,2.86v56.32c0,1.04,0.95,1.8,2.1,1.7c0,0,13.31-1.2,28.37-2.56l-0.42,4.62
		c-4.56,0.85-7.84,2.01-7.86,3.09c-0.04,1.74,8.31,2.14,16.98,1.09c7.26-0.88,12.34-2.51,12.37-3.77c0.02-1.04-3.39-1.7-8.63-1.65
		l0.16-4.52C197.64,202.53,207.59,201.63,207.82,201.6z"/>
</g>
</svg>
