<?xml version="1.0" encoding="UTF-8"?>
<svg id="Logo" xmlns="http://www.w3.org/2000/svg" version="1.1" viewBox="0 0 200 48">
  <!-- Generator: Adobe Illustrator 29.1.0, SVG Export Plug-In . SVG Version: 2.1.0 Build 142)  -->
  <defs>
    <style>
      .st0 {
        fill: #6dba44;
      }

      .st1 {
        fill: #0490da;
      }

      .st2 {
        fill: #fff;
      }
    </style>
  </defs>
  <g>
    <path class="st1" d="M130.8,18.9h3.6l3.1,6.8,3.2-6.8h3.4v10.1h-2.6v-6.7l-3,6.7h-2.1l-3-6.7v6.7h-2.6v-10.1h0Z"/>
    <path class="st1" d="M150.1,25.4l-4.9-6.4h3.3l2.9,4.1,2.9-4.1h3l-4.6,6.4v3.7h-2.7v-3.7h.1Z"/>
    <path class="st1" d="M165.2,25.8v3.2h-2.7v-10.1h6.6c3.1,0,4,1.4,4,3.4h0c0,2.1-1,3.5-4,3.5h-3.9ZM165.2,23.6h3.7c1,0,1.5-.4,1.5-1.2h0c0-.8-.5-1.2-1.5-1.2h-3.7v2.4Z"/>
    <path class="st1" d="M180.2,29.1c-4.4,0-5.7-2.9-5.7-4.9v-.4c0-2,1.3-4.9,5.7-4.9h.6c4.1,0,5.5,2,5.5,3.8h-2.8c0-.3-.4-1.7-3-1.7s-3.1,1.3-3.1,2.6v.2c0,1.2.7,2.7,3.1,2.7s2.9-1.5,3-1.7h2.8c0,2.1-1.6,4-6.1,4v.3Z"/>
    <path class="st2" d="M71.2,25.8v3.3h-2.7v-10.1h6.6c3.1,0,4,1.4,4,3.4h0c0,2.1-1,3.5-4,3.5h-3.9ZM71.2,23.6h3.7c1,0,1.5-.4,1.5-1.1h0c0-.8-.5-1.2-1.5-1.2h-3.7v2.3Z"/>
    <path class="st2" d="M87.4,27.2h-5.3l-.7,1.9h-2.7l4.4-10.1h3.6l4.6,10.1h-2.9l-.8-1.9h-.2ZM84.7,20.9l-1.7,4.1h3.5l-1.8-4.1Z"/>
    <path class="st2" d="M93.6,21.3h-3.8v-2.3h10.2v2.3h-3.7v7.8h-2.7v-7.8Z"/>
    <path class="st2" d="M114.1,18.9h2.7v3.7h5.5v-3.7h2.7v10.1h-2.7v-4.1h-5.5v4.1h-2.7v-10.1h0Z"/>
    <path class="st2" d="M106.3,29.1c-4.4,0-5.7-2.9-5.7-4.9v-.4c0-2,1.3-4.9,5.7-4.9h.6c4.1,0,5.5,2,5.5,3.8h-2.8c0-.3-.4-1.7-3-1.7s-3.1,1.3-3.1,2.6v.2c0,1.2.7,2.7,3.1,2.7s2.9-1.5,3-1.7h2.8c0,2.1-1.6,4-6.1,4v.3Z"/>
  </g>
  <g>
    <path class="st1" d="M15.2,30.9c-.3,0-.5-.3-.5-.6-.6-2.1-.9-4.2-.9-6.3s.4-5.2,1.3-7.6c.7-2.1,1.8-4,3.1-5.7s.5-.1.6.1c.2.7.4,1.7.6,2.7,1.2,5.1,2.4,9.4,3.7,12.9.4,1.2.8,2.4,1.3,3.4.5,1.2,1.1,2.4,1.8,3.5.3.5.6.9.8,1.2,0,0,.1.2.2.2l-11.9-3.7h-.1Z"/>
    <path class="st1" d="M36.1,46.4c-.9,0-1.8,0-2.7-.2s-.4-.4-.2-.6c1.5-1.4,3.1-2.9,3.9-3.6.5-.4,1-.8,1.5-1.2,1-.8,1.9-1.5,2.7-2.2,3.2-2.6,5.5-5.7,6.8-9.2.5-1.4,1-2.9,1.5-4.5.5,2.2,2,9.2,2.9,13.7,0,.3,0,.5-.2.7-2,2.1-4.4,3.8-7,5-2.9,1.3-6,1.9-9.2,1.9v.2Z"/>
    <path class="st1" d="M50.1,22.9c.8-3.2,1.2-5.9,1.4-7.4l5.4,1.7c.3,0,.5.3.5.6.6,2,.9,4.2.9,6.3s-.4,5.2-1.3,7.6c-.7,2.1-1.8,4-3.1,5.8s-.5,0-.6,0l-3.2-14.4h0Z"/>
    <path class="st1" d="M50.3,13.8l-13.5-6.4-2.7,1.1,6.4-5.9c.3-.3.7-.4,1-.3,3.4.9,6.6,2.5,9.2,4.8,2.6,2.2,4.6,5,5.9,8.1s0,.5-.4.4l-6-1.9h0Z"/>
    <path class="st1" d="M19.7,9.3c0-.3,0-.6.2-.8,2-2.1,4.4-3.8,7-5,2.9-1.3,6-2,9.2-2s1.8,0,2.7.2.4.4.2.6l-8.3,7.6-9.9,4.5s-1.1-5.1-1.1-5.1Z"/>
    <path class="st1" d="M31.4,45.7s-.2,0-.3,0c-3.6-.8-6.9-2.5-9.7-4.9-2.6-2.2-4.6-5-5.9-8.1-.1-.3.1-.5.4-.4l12.6,3.9c2.9,3.2,6.1,5,7.2,5.5,0,0-4.3,4-4.3,4Z"/>
    <path class="st2" d="M43.9,29v-9.6c0-.2,0-.4-.2-.4h-.6c0,.1-.2.2-.3.4s0,.3,0,.3h0s.2.1.2.2v7.8c0,.1,0,.2-.2.2l-12.5.7c-.1,0-.2,0-.2-.2v-10.4c0-.1.1-.2.2-.2l7.6,1.2s.2,0,.2-.1c0-.2.2-.3.3-.5s0-.3,0-.3l-9.3-1.6h0c-.5,0-.8.4-.8.7v13.4c0,.2.2.4.5.4,0,0,3-.3,6.5-.6,0,0,.2,0,.2.2v.7l-.2.2c-1,.2-1.7.5-1.7.7,0,.4,2,.5,4,.2,1.7-.2,3-.6,3-.9s-.7-.4-1.8-.4-.2,0-.2-.2v-.7c0-.1,0-.2.2-.2,2.5-.2,4.7-.4,4.8-.4.4,0,.4-.6.4-.7h0Z"/>
    <path class="st0" d="M43,13.6c-3.1,2.6-5,6.5-6.2,9.2s-.2.1-.3,0c-.6-.6-2.2-2.3-2.8-2.9s-.2,0-.3,0c-.4.5-1.3,1.6-1.8,2.2s0,.2,0,.3c1.3,1,4.5,3.8,5.7,4.9s.2,0,.3,0c2.4-5.6,4.7-8.7,7.6-11v-.3l-2-2.3h-.2Z"/>
  </g>
</svg>