<?xml version="1.0" encoding="utf-8"?>
<!-- Generator: Adobe Illustrator 25.4.1, SVG Export Plug-In . SVG Version: 6.00 Build 0)  -->
<svg version="1.1" id="Blue" xmlns="http://www.w3.org/2000/svg" xmlns:xlink="http://www.w3.org/1999/xlink" x="0px" y="0px"
	 viewBox="0 0 864 864" style="enable-background:new 0 0 864 864;" xml:space="preserve">
<style type="text/css">
	.st0{fill:#2868AD;}
</style>
<g>
	<g>
		<g>
			<g>
				<path class="st0" d="M286.39,596.79c-3.42-4.23-7.73-10.29-12.83-18.73c-10.7-16.75-20.46-35.1-28.58-55.24
					c-7.29-18.09-13.93-36.66-19.96-55.07c-17.38-49.39-37.26-116.01-58.84-205.97c-5.66-23.58-10.67-46.75-12.92-57.34
					C102.5,266.5,72,345.75,72,432c0,38.14,5.98,74.9,17.02,109.42l203.82,63.92C290.66,602.55,288.52,599.7,286.39,596.79z"/>
			</g>
			<g>
				<path class="st0" d="M648.71,439.95c-7.05,26.04-15.42,52.99-25.32,78.97C598.25,584.94,554.35,633,515.03,665.36
					c-20.13,17.11-42.5,34.09-67.85,54.37c-13.94,12.6-45.66,41.83-73.48,67.53c18.98,3.1,38.46,4.75,58.3,4.75
					c105.39,0,200.34-45.52,266.23-117.93C681.83,596.15,653.99,463.99,648.71,439.95z"/>
			</g>
			<g>
				<path class="st0" d="M655.49,413.62l55.09,246.13C761.44,597.66,792,518.33,792,432c0-37.98-5.93-74.6-16.88-109l-96.41-30.22
					C675.63,314.66,668.4,360.7,655.49,413.62z"/>
			</g>
			<g>
				<path class="st0" d="M509.32,80.39L393.37,187.03l1.17,0.36l49.73-19.29l215.24,102.24l109.15,34.18
					C725.99,192.2,628.66,106.61,509.32,80.39z"/>
			</g>
			<g>
				<path class="st0" d="M186.49,281.67l160.39-72.68L490.65,76.8C471.55,73.66,451.97,72,432,72
					c-105.3,0-200.18,45.45-266.07,117.75L186.49,281.67z"/>
			</g>
			<g>
				<path class="st0" d="M355.86,783.87l73.47-67.54c-14.31-6.79-68.57-34.75-118.22-89.31L95.36,559.55
					C138.19,672.2,236.01,757.96,355.86,783.87z"/>
			</g>
		</g>
		<path class="st0" d="M444.06,423.17c0,0-48.95-50.84-52.38-55.92c-6.08,8.37-26.59,32.64-35.11,42.03
			c21.16,14.89,85.01,75.66,102.71,92.55c46.4-108.13,89.26-167.53,147.27-207.35l-38.74-43.79
			C505.49,294.47,467.45,372.98,444.06,423.17z"/>
	</g>
	<path class="st0" d="M568.5,524.26c0-0.02,0-0.03,0-0.05V359.9c0-3.05-1.99-5.86-4.46-6.29l-11.61-1.99
		c-3.5,4.12-6.96,8.37-10.38,12.8l12.14,1.83v139.35l-221.38,12.24V332.92l139.62,21.02c2.77-4.82,5.65-9.68,8.67-14.56
		l-166.02-28.5l-0.15-0.07c-8.08-1.33-14.43,5.85-14.43,11.63v229.32c0,4.25,3.85,7.34,8.56,6.91c0,0,54.18-4.88,115.51-10.41
		l-1.7,18.82c-18.58,3.45-31.91,8.17-32.01,12.6c-0.16,7.1,33.83,8.72,69.14,4.45c29.54-3.58,50.26-10.23,50.37-15.36
		c0.09-4.22-13.8-6.92-35.15-6.74l0.66-18.4c43.53-3.93,84.06-7.61,85-7.73C568.96,534.83,568.51,524.6,568.5,524.26z"/>
</g>
</svg>
