<?xml version="1.0" encoding="utf-8"?>
<!-- Generator: Adobe Illustrator 25.4.1, SVG Export Plug-In . SVG Version: 6.00 Build 0)  -->
<svg version="1.1" id="White" xmlns="http://www.w3.org/2000/svg" xmlns:xlink="http://www.w3.org/1999/xlink" x="0px" y="0px"
	 viewBox="0 0 1584 361.88" style="enable-background:new 0 0 1584 361.88;" xml:space="preserve">
<style type="text/css">
	.st0{fill:#FFFFFF;}
</style>
<g>
	<g>
		<path class="st0" d="M340.2,200.09v29.11h-25.2v-91.01h61.65c28.75,0,37.68,12.6,37.68,30.22v1.35c0,17.25-9.17,30.34-37.68,30.34
			H340.2z M340.2,179.78h34.62c9.17,0,13.33-3.92,13.33-10.4v-0.49c0-6.36-4.16-10.4-13.33-10.4H340.2V179.78z"/>
		<path class="st0" d="M494.22,212.32h-49.18l-7.34,16.88h-25.32l40.37-91.01h33.76l42.2,91.01h-27.03L494.22,212.32z
			 M469.27,156.54l-16.03,37.07h32.54L469.27,156.54z"/>
		<path class="st0" d="M553.68,158.98h-35.23v-20.8h95.54v20.8h-35.23v70.22h-25.08V158.98z"/>
		<path class="st0" d="M675.88,230.55c-41.59,0-52.6-26.67-52.6-45.26v-3.67c0-18.96,11.01-44.77,52.6-44.77h5.63
			c38.17,0,50.89,18.72,50.89,35.97v0.24h-25.93c-0.37-2.57-3.67-15.41-27.77-15.41c-22.26,0-29.24,12.48-29.24,24.71v1.71
			c0,11.25,7.1,25.57,29.36,25.57c24.22,0,27.28-13.21,27.65-16.02h25.93v0.37c0,16.64-12.23,36.58-50.89,36.58H675.88z"/>
		<path class="st0" d="M751.24,138.19h25.2v33.76h50.77v-33.76h25.2v91.01h-25.2v-36.58h-50.77v36.58h-25.2V138.19z"/>
		<path class="st0" d="M916.39,138.19h33.52l28.99,61.65l29.85-61.65h31.44v91.01h-24.59v-59.57l-27.65,59.57h-19.7l-27.65-59.57
			v59.57h-24.22V138.19z"/>
		<path class="st0" d="M1103.68,195.93l-45.14-57.74h31.19l27.28,36.09l27.28-36.09h28.14l-43.55,57.86v33.15h-25.2V195.93z"/>
		<path class="st0" d="M1258.67,200.09v29.11h-25.2v-91.01h61.65c28.75,0,37.68,12.6,37.68,30.22v1.35
			c0,17.25-9.17,30.34-37.68,30.34H1258.67z M1258.67,179.78h34.62c9.17,0,13.33-3.92,13.33-10.4v-0.49c0-6.36-4.16-10.4-13.33-10.4
			h-34.62V179.78z"/>
		<path class="st0" d="M1406.33,230.55c-41.59,0-52.6-26.67-52.6-45.26v-3.67c0-18.96,11.01-44.77,52.6-44.77h5.63
			c38.17,0,50.89,18.72,50.89,35.97v0.24h-25.93c-0.37-2.57-3.67-15.41-27.77-15.41c-22.26,0-29.24,12.48-29.24,24.71v1.71
			c0,11.25,7.1,25.57,29.36,25.57c24.22,0,27.28-13.21,27.65-16.02h25.93v0.37c0,16.64-12.23,36.58-50.89,36.58H1406.33z"/>
	</g>
</g>
<g>
	<g>
		<g>
			<g>
				<path class="st0" d="M148.24,218.16c-0.77-0.96-1.75-2.33-2.9-4.24c-2.42-3.79-4.63-7.95-6.47-12.51
					c-1.65-4.1-3.15-8.3-4.52-12.47c-3.94-11.18-8.44-26.26-13.32-46.63c-1.28-5.34-2.42-10.58-2.92-12.98
					c-11.49,14.05-18.4,31.99-18.4,51.52c0,8.63,1.35,16.96,3.85,24.77l46.15,14.47C149.21,219.46,148.73,218.82,148.24,218.16z"/>
			</g>
			<g>
				<path class="st0" d="M230.27,182.65c-1.6,5.9-3.49,12-5.73,17.88c-5.69,14.95-15.63,25.83-24.53,33.15
					c-4.56,3.87-9.62,7.72-15.36,12.31c-3.15,2.85-10.34,9.47-16.64,15.29c4.3,0.7,8.71,1.07,13.2,1.07
					c23.86,0,45.36-10.31,60.27-26.7C237.77,218.01,231.47,188.09,230.27,182.65z"/>
			</g>
			<g>
				<path class="st0" d="M231.81,176.69l12.47,55.72c11.51-14.06,18.43-32.02,18.43-51.56c0-8.6-1.34-16.89-3.82-24.68l-21.83-6.84
					C236.37,154.29,234.73,164.71,231.81,176.69z"/>
			</g>
			<g>
				<path class="st0" d="M198.72,101.25l-26.25,24.14l0.26,0.08l11.26-4.37l48.73,23.15l24.71,7.74
					C247.77,126.56,225.73,107.18,198.72,101.25z"/>
			</g>
			<g>
				<path class="st0" d="M125.63,146.82l36.31-16.45l32.55-29.93c-4.32-0.71-8.76-1.09-13.28-1.09c-23.84,0-45.32,10.29-60.24,26.66
					L125.63,146.82z"/>
			</g>
			<g>
				<path class="st0" d="M163.97,260.51l16.63-15.29c-3.24-1.54-15.52-7.87-26.76-20.22L105,209.73
					C114.69,235.23,136.84,254.65,163.97,260.51z"/>
			</g>
		</g>
		<path class="st0" d="M183.94,178.85c0,0-11.08-11.51-11.86-12.66c-1.38,1.89-6.02,7.39-7.95,9.52
			c4.79,3.37,19.25,17.13,23.25,20.95c10.5-24.48,20.21-37.93,33.34-46.94l-8.77-9.91C197.85,149.72,189.24,167.49,183.94,178.85z"
			/>
	</g>
	<path class="st0" d="M212.11,201.74c0,0,0-0.01,0-0.01v-37.2c0-0.69-0.45-1.33-1.01-1.42l-2.63-0.45c-0.79,0.93-1.58,1.89-2.35,2.9
		l2.75,0.41v31.55l-50.12,2.77v-41.86l31.61,4.76c0.63-1.09,1.28-2.19,1.96-3.3l-37.59-6.45l-0.03-0.02
		c-1.83-0.3-3.27,1.32-3.27,2.63v51.92c0,0.96,0.87,1.66,1.94,1.56c0,0,13.54-1.22,27.42-2.47l-0.38,4.26
		c-4.21,0.78-7.22,1.85-7.25,2.85c-0.04,1.61,7.66,1.98,15.65,1.01c6.69-0.81,11.38-2.32,11.4-3.48c0.02-0.96-3.12-1.57-7.96-1.52
		l0.15-4.17c9.86-0.89,17.76-1.61,17.97-1.64C212.22,204.13,212.12,201.82,212.11,201.74z"/>
</g>
</svg>
