<?xml version="1.0" encoding="utf-8"?>
<!-- Generator: Adobe Illustrator 25.4.1, SVG Export Plug-In . SVG Version: 6.00 Build 0)  -->
<svg version="1.1" id="Color" xmlns="http://www.w3.org/2000/svg" xmlns:xlink="http://www.w3.org/1999/xlink" x="0px" y="0px"
	 viewBox="0 0 864 427.9" style="enable-background:new 0 0 864 427.9;" xml:space="preserve">
<style type="text/css">
	.st0{fill:#61B222;}
	.st1{fill:#2868AD;}
</style>
<g>
	<g>
		<path class="st0" d="M146.06,189.22v34.16H116.5V116.61h72.33c33.72,0,44.2,14.78,44.2,35.45v1.58c0,20.23-10.76,35.59-44.2,35.59
			H146.06z M146.06,165.4h40.61c10.76,0,15.64-4.59,15.64-12.2v-0.57c0-7.46-4.88-12.2-15.64-12.2h-40.61V165.4z"/>
		<path class="st0" d="M326.73,203.57h-57.69l-8.61,19.8h-29.71l47.36-106.77h39.61l49.51,106.77h-31.72L326.73,203.57z
			 M297.46,138.13l-18.8,43.48h38.17L297.46,138.13z"/>
		<path class="st0" d="M396.47,141h-41.33v-24.4h112.08V141h-41.33v82.37h-29.42V141z"/>
		<path class="st0" d="M539.82,224.96c-48.79,0-61.71-31.28-61.71-53.1v-4.31c0-22.24,12.92-52.52,61.71-52.52h6.6
			c44.77,0,59.7,21.96,59.7,42.19v0.29H575.7c-0.43-3.01-4.31-18.08-32.58-18.08c-26.12,0-34.3,14.64-34.3,28.99v2.01
			c0,13.2,8.32,29.99,34.44,29.99c28.42,0,32-15.5,32.43-18.8h30.42v0.43c0,19.52-14.35,42.91-59.7,42.91H539.82z"/>
		<path class="st0" d="M628.21,116.61h29.56v39.61h59.56v-39.61h29.56v106.77h-29.56v-42.91h-59.56v42.91h-29.56V116.61z"/>
		<path class="st1" d="M188.83,243.71h24.98l21.61,45.96l22.25-45.96h23.43v67.85h-18.33v-44.41l-20.6,44.41h-14.68l-20.6-44.41
			v44.41h-18.05V243.71z"/>
		<path class="st1" d="M348.85,286.75l-33.64-43.04h23.25l20.33,26.9l20.33-26.9h20.97l-32.46,43.13v24.71h-18.78V286.75z"/>
		<path class="st1" d="M505.23,289.85v21.7h-18.78v-67.85h45.95c21.43,0,28.08,9.39,28.08,22.52v1c0,12.86-6.84,22.61-28.08,22.61
			H505.23z M505.23,274.71h25.8c6.84,0,9.94-2.92,9.94-7.75v-0.36c0-4.74-3.1-7.75-9.94-7.75h-25.8V274.71z"/>
		<path class="st1" d="M635.7,312.56c-31,0-39.2-19.88-39.2-33.74v-2.73c0-14.13,8.21-33.38,39.2-33.38h4.19
			c28.45,0,37.93,13.95,37.93,26.81v0.18H658.5c-0.27-1.92-2.74-11.49-20.7-11.49c-16.59,0-21.79,9.3-21.79,18.42v1.28
			c0,8.39,5.29,19.06,21.88,19.06c18.05,0,20.33-9.85,20.6-11.95h19.33v0.27c0,12.4-9.12,27.27-37.93,27.27H635.7z"/>
	</g>
</g>
</svg>
